<svg width="1099" height="216" viewBox="0 0 1099 216" fill="none" xmlns="http://www.w3.org/2000/svg">
<g style="mix-blend-mode:hard-light" opacity="0.4" filter="url(#filter0_f_2667_15306)">
<path d="M84.3478 147.895C66.1918 129.839 66.573 100.603 85.1992 82.595C103.825 64.587 133.643 64.6262 151.799 82.6826C169.955 100.739 169.574 129.975 150.948 147.983C132.322 165.991 102.504 165.951 84.3478 147.895Z" fill="#AF64EE"/>
</g>
<path d="M201.444 142.289L189 115.289L216 127.896L205.889 132.415L201.444 142.289Z" stroke="#AF64EE" stroke-width="1.2"/>
<path d="M76 37.2888L79.3089 42.98L85 46.2888L79.3089 49.5977L76 55.2888L72.6911 49.5977L67 46.2888L72.6911 42.98L76 37.2888Z" stroke="url(#paint0_linear_2667_15306)" stroke-width="1.2"/>
<path d="M78 149.261L81.3089 154.953L87 158.261L81.3089 161.57L78 167.261L74.6911 161.57L69 158.261L74.6911 154.953L78 149.261Z" stroke="url(#paint1_linear_2667_15306)" stroke-width="1.2"/>
<rect x="199" y="109.289" width="98" height="37" rx="18.5" transform="rotate(-180 199 109.289)" stroke="url(#paint2_linear_2667_15306)" stroke-width="1.2"/>
<path d="M138.84 91.586L145.615 98.1877L161.159 83.0427" stroke="#DACAFC" stroke-width="4"/>
<path d="M212 137C311 210 406.49 134.559 364 114C333 99 290.518 168.235 453 155" stroke="url(#paint3_linear_2667_15306)" stroke-width="0.711824"/>
<g style="mix-blend-mode:hard-light">
<path d="M944.93 108.968C944.767 108.951 944.603 108.938 944.438 108.931L944.438 64.309L1098.25 64.309L1098.25 108.921C1093.51 108.921 1089.66 112.769 1089.66 117.516C1089.66 122.263 1093.51 126.111 1098.25 126.111L1098.25 170.048L944.438 170.048L944.029 126.111C944.07 126.111 944.11 126.111 944.151 126.11C948.842 126.045 952.624 122.222 952.624 117.516C952.624 113.073 949.253 109.418 944.93 108.968Z" fill="url(#paint4_linear_2667_15306)"/>
</g>
<path d="M944.438 108.931C944.603 108.938 944.767 108.951 944.93 108.968C949.253 109.418 952.624 113.073 952.624 117.516C952.624 122.222 948.842 126.045 944.151 126.11C944.11 126.111 944.07 126.111 944.029 126.111L944.438 170.048L1098.25 170.048L1098.25 126.111C1093.51 126.111 1089.66 122.263 1089.66 117.516C1089.66 112.769 1093.51 108.921 1098.25 108.921L1098.25 64.309L944.438 64.309L944.438 108.931ZM944.438 108.931C944.303 108.924 944.166 108.921 944.029 108.921" stroke="url(#paint5_linear_2667_15306)" stroke-width="0.885962"/>
<g style="mix-blend-mode:hard-light">
<path d="M929.978 91.9475C929.816 91.9306 929.652 91.9182 929.487 91.9105L929.487 47.2888L1083.3 47.2888L1083.3 91.9009C1078.56 91.9009 1074.71 95.749 1074.71 100.496C1074.71 105.243 1078.56 109.091 1083.3 109.091L1083.3 153.028L929.487 153.028L929.078 109.091C929.119 109.091 929.159 109.091 929.2 109.09C933.891 109.025 937.673 105.202 937.673 100.496C937.673 96.0531 934.302 92.3976 929.978 91.9475Z" fill="url(#paint6_linear_2667_15306)"/>
</g>
<path fill-rule="evenodd" clip-rule="evenodd" d="M929.978 91.9475C929.816 91.9306 929.652 91.9182 929.487 91.9105L929.487 47.2888L1083.3 47.2888L1083.3 91.9009C1078.56 91.9009 1074.71 95.749 1074.71 100.496C1074.71 105.243 1078.56 109.091 1083.3 109.091L1083.3 153.028L929.487 153.028L929.078 109.091C929.119 109.091 929.159 109.091 929.2 109.09C933.891 109.025 937.673 105.202 937.673 100.496C937.673 96.0531 934.302 92.3976 929.978 91.9475ZM930.067 110.023L930.463 152.046L1082.32 152.046L1082.32 110.023C1077.49 109.532 1073.73 105.454 1073.73 100.496C1073.73 95.5382 1077.49 91.4603 1082.32 90.9684L1082.32 48.2711L930.47 48.2711L930.47 91.0191C935.1 91.6933 938.655 95.6791 938.655 100.496C938.655 105.451 934.892 109.528 930.067 110.023Z" fill="url(#paint7_linear_2667_15306)"/>
<path fill-rule="evenodd" clip-rule="evenodd" d="M1055.61 113.13L990.914 113.13C988.737 113.13 986.973 114.895 986.973 117.071V135.984C986.973 138.16 988.737 139.925 990.914 139.925H1055.61C1057.79 139.925 1059.55 138.16 1059.55 135.984V117.071C1059.55 114.895 1057.79 113.13 1055.61 113.13ZM990.914 112.685C988.491 112.685 986.527 114.649 986.527 117.071V135.984C986.527 138.406 988.491 140.37 990.914 140.37H1055.61C1058.04 140.37 1060 138.406 1060 135.984V117.071C1060 114.649 1058.04 112.685 1055.61 112.685L990.914 112.685Z" fill="url(#paint8_linear_2667_15306)"/>
<path fill-rule="evenodd" clip-rule="evenodd" d="M1022.21 79.8539L1064.43 79.854L1064.43 80.3451L1022.21 80.3451L1022.21 79.8539Z" fill="#AF64EE"/>
<path fill-rule="evenodd" clip-rule="evenodd" d="M1060.28 99.0651H1060.52V100.047H1060.28V99.0651ZM1055.03 99.0651H1055.51V100.047H1055.03V99.0651ZM1049.78 99.0651H1050.26V100.047H1049.78V99.0651ZM1044.53 99.0651H1045.01V100.047H1044.53V99.0651ZM1039.28 99.0651H1039.76V100.047H1039.28V99.0651ZM1034.03 99.0651H1034.51V100.047H1034.03V99.0651ZM1028.78 99.0651H1029.26V100.047H1028.78V99.0651ZM1023.53 99.0651H1024.01V100.047H1023.53V99.0651ZM1018.28 99.0651H1018.76V100.047H1018.28V99.0651ZM1013.03 99.0651H1013.51V100.047H1013.03V99.0651ZM1007.78 99.0651H1008.26V100.047H1007.78V99.0651ZM1002.53 99.0651H1003.01V100.047H1002.53V99.0651ZM997.281 99.0651H997.758V100.047H997.281V99.0651ZM992.031 99.0651H992.508V100.047H992.031V99.0651ZM986.781 99.0651H987.258V100.047H986.781V99.0651ZM981.531 99.0651H982.008V100.047H981.531V99.0651ZM976.281 99.0651H976.758V100.047H976.281V99.0651ZM971.03 99.0651H971.508V100.047H971.03V99.0651ZM965.78 99.0651H966.258V100.047H965.78V99.0651ZM960.53 99.0651H961.007V100.047H960.53V99.0651ZM955.28 99.0651H955.757V100.047H955.28V99.0651ZM950.03 99.0651H950.507V100.047H950.03V99.0651ZM944.78 99.0651H945.257V100.047H944.78V99.0651ZM939.53 99.0651H940.007V100.047H939.53V99.0651ZM934.279 99.0651H934.757V100.047H934.279V99.0651Z" fill="url(#paint9_linear_2667_15306)"/>
<path d="M1005.65 135.663V117.804H1006.8V135.663H1005.65ZM1009.23 123.343C1009.16 122.683 1008.85 122.171 1008.31 121.808C1007.77 121.441 1007.09 121.257 1006.27 121.257C1005.69 121.257 1005.18 121.35 1004.75 121.536C1004.33 121.718 1003.99 121.969 1003.76 122.29C1003.52 122.606 1003.41 122.966 1003.41 123.371C1003.41 123.71 1003.49 124.003 1003.64 124.25C1003.81 124.496 1004.02 124.703 1004.28 124.871C1004.54 125.034 1004.83 125.171 1005.13 125.282C1005.43 125.389 1005.72 125.478 1006 125.548L1007.4 125.91C1007.85 126.022 1008.32 126.173 1008.8 126.364C1009.28 126.555 1009.72 126.806 1010.13 127.117C1010.54 127.429 1010.87 127.815 1011.12 128.275C1011.38 128.736 1011.51 129.287 1011.51 129.929C1011.51 130.738 1011.3 131.457 1010.88 132.085C1010.47 132.712 1009.86 133.208 1009.07 133.57C1008.29 133.933 1007.34 134.115 1006.22 134.115C1005.15 134.115 1004.22 133.945 1003.44 133.605C1002.66 133.266 1002.05 132.784 1001.61 132.161C1001.17 131.533 1000.92 130.789 1000.88 129.929H1003.04C1003.08 130.445 1003.25 130.875 1003.54 131.219C1003.84 131.559 1004.22 131.812 1004.68 131.98C1005.14 132.143 1005.65 132.224 1006.21 132.224C1006.81 132.224 1007.36 132.129 1007.83 131.938C1008.31 131.743 1008.69 131.473 1008.96 131.129C1009.24 130.78 1009.37 130.373 1009.37 129.908C1009.37 129.485 1009.25 129.138 1009.01 128.868C1008.77 128.599 1008.45 128.375 1008.04 128.199C1007.64 128.022 1007.18 127.866 1006.67 127.731L1004.98 127.271C1003.83 126.959 1002.93 126.501 1002.26 125.896C1001.59 125.292 1001.26 124.492 1001.26 123.496C1001.26 122.673 1001.48 121.955 1001.93 121.341C1002.37 120.727 1002.98 120.25 1003.74 119.911C1004.51 119.566 1005.37 119.394 1006.32 119.394C1007.29 119.394 1008.14 119.564 1008.88 119.904C1009.63 120.243 1010.21 120.711 1010.64 121.306C1011.07 121.897 1011.29 122.576 1011.31 123.343H1009.23Z" fill="#02FE57"/>
<path d="M1013.89 133.877V132.315L1018.72 127.306C1019.24 126.761 1019.66 126.285 1020 125.875C1020.34 125.462 1020.59 125.069 1020.76 124.696C1020.93 124.324 1021.01 123.929 1021.01 123.51C1021.01 123.036 1020.9 122.627 1020.68 122.283C1020.45 121.934 1020.15 121.666 1019.76 121.48C1019.38 121.29 1018.94 121.194 1018.46 121.194C1017.95 121.194 1017.5 121.299 1017.12 121.508C1016.74 121.718 1016.44 122.013 1016.24 122.394C1016.03 122.776 1015.93 123.222 1015.93 123.734H1013.87C1013.87 122.864 1014.07 122.104 1014.47 121.452C1014.87 120.801 1015.42 120.297 1016.12 119.939C1016.82 119.576 1017.61 119.394 1018.5 119.394C1019.4 119.394 1020.19 119.573 1020.87 119.932C1021.56 120.285 1022.1 120.769 1022.48 121.383C1022.87 121.992 1023.06 122.68 1023.06 123.448C1023.06 123.978 1022.96 124.496 1022.76 125.003C1022.57 125.51 1022.22 126.075 1021.74 126.699C1021.25 127.317 1020.57 128.068 1019.7 128.952L1016.86 131.924V132.029H1023.29V133.877H1013.89Z" fill="#02FE57"/>
<path d="M1030.91 134.115C1029.81 134.11 1028.87 133.819 1028.08 133.243C1027.3 132.666 1026.71 131.826 1026.29 130.724C1025.88 129.622 1025.67 128.294 1025.67 126.741C1025.67 125.192 1025.88 123.869 1026.29 122.771C1026.71 121.673 1027.31 120.836 1028.09 120.259C1028.88 119.683 1029.82 119.394 1030.91 119.394C1032 119.394 1032.94 119.685 1033.72 120.266C1034.5 120.843 1035.1 121.68 1035.51 122.778C1035.93 123.871 1036.14 125.192 1036.14 126.741C1036.14 128.299 1035.94 129.629 1035.52 130.731C1035.11 131.829 1034.51 132.668 1033.73 133.25C1032.95 133.826 1032.01 134.115 1030.91 134.115ZM1030.91 132.252C1031.88 132.252 1032.63 131.78 1033.18 130.836C1033.73 129.892 1034 128.527 1034 126.741C1034 125.555 1033.88 124.552 1033.62 123.734C1033.38 122.91 1033.02 122.287 1032.56 121.864C1032.1 121.436 1031.55 121.222 1030.91 121.222C1029.95 121.222 1029.19 121.697 1028.64 122.645C1028.09 123.594 1027.82 124.959 1027.81 126.741C1027.81 127.931 1027.94 128.938 1028.18 129.761C1028.43 130.58 1028.79 131.201 1029.25 131.624C1029.71 132.043 1030.26 132.252 1030.91 132.252Z" fill="#02FE57"/>
<path d="M1043.59 134.115C1042.49 134.11 1041.55 133.819 1040.77 133.243C1039.99 132.666 1039.39 131.826 1038.97 130.724C1038.56 129.622 1038.35 128.294 1038.35 126.741C1038.35 125.192 1038.56 123.869 1038.97 122.771C1039.39 121.673 1039.99 120.836 1040.77 120.259C1041.56 119.683 1042.5 119.394 1043.59 119.394C1044.68 119.394 1045.62 119.685 1046.4 120.266C1047.18 120.843 1047.78 121.68 1048.2 122.778C1048.61 123.871 1048.82 125.192 1048.82 126.741C1048.82 128.299 1048.62 129.629 1048.2 130.731C1047.79 131.829 1047.19 132.668 1046.41 133.25C1045.63 133.826 1044.69 134.115 1043.59 134.115ZM1043.59 132.252C1044.56 132.252 1045.32 131.78 1045.86 130.836C1046.41 129.892 1046.68 128.527 1046.68 126.741C1046.68 125.555 1046.56 124.552 1046.31 123.734C1046.06 122.91 1045.7 122.287 1045.24 121.864C1044.78 121.436 1044.23 121.222 1043.59 121.222C1042.63 121.222 1041.87 121.697 1041.32 122.645C1040.78 123.594 1040.5 124.959 1040.49 126.741C1040.49 127.931 1040.62 128.938 1040.86 129.761C1041.12 130.58 1041.47 131.201 1041.93 131.624C1042.39 132.043 1042.95 132.252 1043.59 132.252Z" fill="#02FE57"/>
<path d="M969.576 79.6572C969.178 79.6629 968.783 79.5878 968.415 79.4364C968.082 79.3007 967.798 79.0694 967.598 78.7721C967.394 78.4568 967.29 78.087 967.3 77.7116C967.285 77.3448 967.39 76.9829 967.598 76.6801C967.81 76.39 968.101 76.1671 968.437 76.0384C968.823 75.8861 969.234 75.8111 969.649 75.8177H971.43V75.4401C971.436 75.2957 971.413 75.1515 971.362 75.0162C971.311 74.8808 971.234 74.7569 971.134 74.652C970.927 74.4457 970.639 74.3549 970.194 74.3549C969.854 74.331 969.517 74.4373 969.253 74.652C969.05 74.8561 968.907 75.1115 968.839 75.3906L967.53 74.947C967.624 74.6095 967.793 74.2973 968.023 74.0331C968.254 73.7689 968.541 73.5596 968.864 73.4203C969.286 73.2415 969.742 73.157 970.2 73.1727C970.991 73.1727 971.635 73.379 972.081 73.7648C972.526 74.1506 972.772 74.7489 972.772 75.4896V77.8788C972.772 78.1243 972.897 78.2481 973.118 78.2481H973.638V79.486H972.648C972.383 79.4957 972.122 79.4173 971.907 79.2631C971.809 79.1932 971.731 79.0997 971.679 78.9915C971.627 78.8833 971.603 78.7639 971.61 78.6442V78.6194H971.403C971.337 78.766 971.255 78.9044 971.157 79.0321C971.002 79.2126 970.807 79.3541 970.587 79.4447C970.276 79.6046 969.926 79.678 969.576 79.6572ZM969.823 78.4998C970.029 78.5125 970.236 78.4843 970.431 78.4166C970.627 78.3489 970.806 78.2433 970.96 78.1057C971.11 77.9692 971.228 77.8013 971.305 77.614C971.382 77.4267 971.416 77.2247 971.405 77.0225V76.8988H969.724C969.462 76.8958 969.204 76.9674 968.982 77.1051C968.886 77.1688 968.81 77.2577 968.763 77.3618C968.715 77.466 968.697 77.5814 968.711 77.6951C968.708 77.8104 968.733 77.9247 968.785 78.0279C968.836 78.1311 968.913 78.2202 969.007 78.2873C969.249 78.4435 969.535 78.518 969.823 78.4998Z" fill="white"/>
<path d="M979.539 79.4865V70.934H980.974V74.1904H981.196C981.28 74.0364 981.388 73.8971 981.517 73.7777C981.689 73.6232 981.892 73.5059 982.112 73.4332C982.466 73.3113 982.843 73.2635 983.217 73.293C983.591 73.3225 983.955 73.4285 984.286 73.6044C984.649 73.81 984.942 74.1189 985.127 74.4916C985.336 74.9126 985.438 75.3778 985.426 75.8471V79.4927H983.99V75.9626C984.005 75.7627 983.98 75.5618 983.916 75.3716C983.853 75.1814 983.752 75.0057 983.619 74.8547C983.481 74.7269 983.317 74.6283 983.139 74.5649C982.961 74.5014 982.772 74.4744 982.584 74.4854C982.362 74.478 982.141 74.5182 981.937 74.6033C981.732 74.6884 981.548 74.8164 981.397 74.9785C981.099 75.2983 980.952 75.7914 980.952 76.4062V79.4865H979.539Z" fill="white"/>
<path d="M989.802 79.6576C989.236 79.6704 988.675 79.5435 988.17 79.2883C987.697 79.0507 987.301 78.6835 987.031 78.2299C986.744 77.7187 986.601 77.14 986.616 76.5546V76.3483C986.603 75.7638 986.746 75.1864 987.031 74.6751C987.3 74.2139 987.695 73.8378 988.17 73.5898C988.676 73.3383 989.236 73.2117 989.802 73.2205C990.368 73.209 990.928 73.3358 991.434 73.5898C991.914 73.8299 992.31 74.208 992.571 74.6751C992.856 75.1864 992.999 75.7638 992.985 76.3483V76.5546C992.998 77.1396 992.855 77.7175 992.571 78.2299C992.308 78.6891 991.912 79.0581 991.434 79.2883C990.927 79.5379 990.368 79.6645 989.802 79.6576ZM989.802 78.4011C990.035 78.4085 990.266 78.3688 990.483 78.2844C990.7 78.2 990.897 78.0727 991.063 77.9101C991.407 77.525 991.585 77.0199 991.556 76.5051V76.3813C991.58 75.8677 991.404 75.3649 991.063 74.9784C990.901 74.8109 990.704 74.6801 990.487 74.5951C990.269 74.51 990.035 74.4725 989.802 74.4853C989.325 74.4747 988.863 74.6519 988.516 74.9784C988.171 75.3624 987.993 75.8668 988.021 76.3813V76.5051C987.996 77.0219 988.175 77.5279 988.518 77.9163C988.866 78.2393 989.327 78.4134 989.802 78.4011Z" fill="white"/>
<path d="M994.326 79.4871V73.4028H995.71V74.1167H995.933C996.014 73.8901 996.176 73.7008 996.387 73.5844C996.623 73.4621 996.887 73.4031 997.153 73.4132H997.895V74.6696H997.129C996.77 74.6457 996.415 74.7602 996.139 74.9894C996.006 75.1203 995.905 75.2785 995.841 75.4528C995.777 75.6272 995.752 75.8133 995.768 75.9983V79.5057L994.326 79.4871Z" fill="white"/>
<path d="M1000.94 79.6573C1000.55 79.663 1000.15 79.5879 999.782 79.4365C999.45 79.2998 999.166 79.0687 998.965 78.7722C998.761 78.4567 998.658 78.0869 998.669 77.7118C998.655 77.3452 998.759 76.9837 998.965 76.6802C999.178 76.3903 999.47 76.1675 999.806 76.0385C1000.19 75.8859 1000.6 75.8108 1001.02 75.8178H1002.81V75.4402C1002.81 75.2958 1002.79 75.1516 1002.74 75.0163C1002.69 74.8809 1002.61 74.7571 1002.51 74.6521C1002.3 74.4458 1002.02 74.355 1001.57 74.355C1001.23 74.3311 1000.89 74.4374 1000.63 74.6521C1000.43 74.8562 1000.28 75.1116 1000.22 75.3907L998.905 74.9471C999.003 74.6237 999.162 74.3223 999.376 74.06C999.615 73.7881 999.911 73.5701 1000.24 73.4204C1000.66 73.2424 1001.11 73.1572 1001.56 73.1707C1002.36 73.1707 1003 73.3771 1003.44 73.7629C1003.89 74.1487 1004.14 74.747 1004.14 75.4877V77.8768C1004.14 78.1223 1004.26 78.2461 1004.48 78.2461H1005V79.484H1004.01C1003.75 79.4938 1003.49 79.4154 1003.27 79.2612C1003.17 79.1914 1003.09 79.0981 1003.04 78.9899C1002.99 78.8817 1002.97 78.7621 1002.97 78.6422V78.6175H1002.77C1002.7 78.764 1002.62 78.9025 1002.52 79.0301C1002.36 79.2102 1002.17 79.3516 1001.95 79.4427C1001.64 79.5997 1001.29 79.6736 1000.94 79.6573ZM1001.19 78.4999C1001.4 78.5126 1001.61 78.4844 1001.8 78.4167C1002 78.3491 1002.18 78.2434 1002.33 78.1058C1002.48 77.9691 1002.6 77.8011 1002.67 77.6138C1002.75 77.4266 1002.78 77.2247 1002.77 77.0227V76.8989H1001.09C1000.83 76.8956 1000.57 76.9672 1000.35 77.1052C1000.26 77.1689 1000.18 77.2578 1000.13 77.3619C1000.08 77.4661 1000.07 77.5815 1000.08 77.6952C1000.08 77.8106 1000.1 77.9251 1000.15 78.0284C1000.2 78.1317 1000.28 78.2207 1000.38 78.2874C1000.62 78.4456 1000.91 78.5202 1001.2 78.4999H1001.19Z" fill="white"/>
<path d="M963.859 70.9341V74.4855H960.448L960.448 70.9341H958.965L958.965 79.4866H960.448V75.841H963.859V79.4866H965.369V70.9341H963.859Z" fill="white"/>
<path d="M976.353 70.934H974.918L974.918 73.623H976.353L976.353 70.934Z" fill="white"/>
<path d="M978.108 73.6478H976.352V75.0032H978.108V73.6478Z" fill="white"/>
<path d="M974.917 75.0536V78.2058C974.906 78.5586 975.03 78.9024 975.265 79.1671C975.39 79.2839 975.538 79.3746 975.699 79.4337C975.86 79.4929 976.031 79.5194 976.203 79.5116H977.909V78.3543H976.667C976.445 78.3543 976.321 78.2305 976.321 77.983V75.0536H974.917Z" fill="white"/>
<g clip-path="url(#clip0_2667_15306)">
<path fill-rule="evenodd" clip-rule="evenodd" d="M944.211 72.62L948.346 74.9951C950.276 76.0768 952.24 77.1777 952.581 77.3668C952.595 77.374 952.61 77.3814 952.624 77.3886C953.313 77.725 953.963 76.8903 953.963 76.8903L953.97 76.8808L945.046 71.8156L944.211 72.62Z" fill="url(#paint10_linear_2667_15306)"/>
<path fill-rule="evenodd" clip-rule="evenodd" d="M949.115 70.3345L948.284 71.1252L955.533 75.3486L956.399 74.5167L949.115 70.3345Z" fill="url(#paint11_linear_2667_15306)"/>
<path fill-rule="evenodd" clip-rule="evenodd" d="M947.084 71.0129L946.244 71.8189L954.305 76.5205L955.177 75.6891L947.084 71.0129Z" fill="url(#paint12_linear_2667_15306)"/>
<path fill-rule="evenodd" clip-rule="evenodd" d="M948.039 75.4462L947.586 75.8805L949.376 76.8835L949.831 76.4493L948.039 75.4462Z" fill="url(#paint13_linear_2667_15306)"/>
<path fill-rule="evenodd" clip-rule="evenodd" d="M949.068 77.1969L948.586 77.659L946.8 76.6524L947.276 76.1958L949.068 77.1969Z" fill="url(#paint14_linear_2667_15306)"/>
<path fill-rule="evenodd" clip-rule="evenodd" d="M947.757 78.4543L948.238 77.9942L946.446 76.9931L945.964 77.4532L947.757 78.4543Z" fill="url(#paint15_linear_2667_15306)"/>
<path fill-rule="evenodd" clip-rule="evenodd" d="M947.41 78.7856L946.928 79.2457L945.147 78.2335L945.617 77.7825L947.41 78.7856Z" fill="url(#paint16_linear_2667_15306)"/>
<path fill-rule="evenodd" clip-rule="evenodd" d="M946.58 79.5788C946.425 79.6822 945.873 79.9124 945.153 79.5108L944.316 79.0306L944.789 78.5778L946.582 79.579L946.58 79.5788Z" fill="url(#paint17_linear_2667_15306)"/>
</g>
<path d="M1022.73 75.7142V71.1303H1023.8L1025.4 75.3672H1025.48V71.1303H1026.03V75.7142H1024.96L1023.37 71.4708H1023.28V75.7142H1022.73Z" fill="#AF64EE"/>
<path d="M1027.99 73.4877C1027.64 73.4877 1027.35 73.383 1027.14 73.1734C1026.92 72.9595 1026.81 72.6626 1026.81 72.2828C1026.81 71.9074 1026.92 71.6148 1027.14 71.4053C1027.35 71.1914 1027.64 71.0844 1027.99 71.0844C1028.35 71.0844 1028.63 71.1914 1028.84 71.4053C1029.06 71.6148 1029.17 71.9074 1029.17 72.2828C1029.17 72.6626 1029.06 72.9595 1028.84 73.1734C1028.63 73.383 1028.35 73.4877 1027.99 73.4877ZM1027.99 73.1407C1028.22 73.1407 1028.4 73.0643 1028.54 72.9115C1028.68 72.7587 1028.75 72.5491 1028.75 72.2828C1028.75 72.0209 1028.68 71.8135 1028.54 71.6607C1028.4 71.5079 1028.22 71.4315 1027.99 71.4315C1027.77 71.4315 1027.58 71.5079 1027.44 71.6607C1027.3 71.8135 1027.23 72.0209 1027.23 72.2828C1027.23 72.5491 1027.3 72.7587 1027.44 72.9115C1027.58 73.0643 1027.77 73.1407 1027.99 73.1407Z" fill="#AF64EE"/>
<path d="M1034.12 75.8059C1033.6 75.8059 1033.18 75.6531 1032.87 75.3475C1032.57 75.0376 1032.42 74.5748 1032.42 73.9592V72.8853C1032.42 72.2741 1032.57 71.8135 1032.87 71.5035C1033.18 71.1936 1033.6 71.0386 1034.12 71.0386C1034.64 71.0386 1035.06 71.1936 1035.36 71.5035C1035.67 71.8135 1035.83 72.2741 1035.83 72.8853V73.9592C1035.83 74.5748 1035.67 75.0376 1035.36 75.3475C1035.06 75.6531 1034.64 75.8059 1034.12 75.8059ZM1034.12 75.3279C1034.51 75.3279 1034.81 75.21 1035 74.9743C1035.2 74.7385 1035.3 74.4089 1035.3 73.9854V72.8525C1035.3 72.4291 1035.2 72.1016 1035 71.8702C1034.8 71.6345 1034.5 71.5166 1034.12 71.5166C1033.73 71.5166 1033.44 71.6345 1033.24 71.8702C1033.05 72.106 1032.95 72.4334 1032.95 72.8525V73.9854C1032.95 74.4133 1033.05 74.7451 1033.24 74.9808C1033.44 75.2122 1033.73 75.3279 1034.12 75.3279Z" fill="#AF64EE"/>
<path d="M1037.9 75.7142V71.4839H1037.8L1036.91 73.1145H1036.34L1037.43 71.1303H1038.43V75.7142H1037.9Z" fill="#AF64EE"/>
<path d="M1039.3 75.7142V75.2362C1039.3 74.9088 1039.36 74.6468 1039.47 74.4504C1039.59 74.2539 1039.75 74.0968 1039.96 73.9789C1040.17 73.8566 1040.42 73.7519 1040.7 73.6645L1041.06 73.5532C1041.26 73.4921 1041.43 73.4179 1041.58 73.3306C1041.73 73.2389 1041.85 73.1254 1041.93 72.99C1042.01 72.8503 1042.05 72.6801 1042.05 72.4793V72.4531C1042.05 72.1649 1041.95 71.9379 1041.75 71.772C1041.55 71.6018 1041.29 71.5166 1040.98 71.5166C1040.65 71.5166 1040.38 71.6061 1040.17 71.7851C1039.96 71.9597 1039.85 72.226 1039.85 72.584V72.6757H1039.33V72.5906C1039.33 72.2588 1039.4 71.9772 1039.55 71.7458C1039.69 71.5144 1039.89 71.3398 1040.13 71.2219C1040.38 71.0997 1040.66 71.0386 1040.98 71.0386C1041.29 71.0386 1041.57 71.0975 1041.81 71.2154C1042.06 71.3333 1042.25 71.497 1042.38 71.7065C1042.52 71.9161 1042.58 72.1606 1042.58 72.44V72.4989C1042.58 72.7958 1042.52 73.0424 1042.41 73.2389C1042.29 73.431 1042.13 73.5881 1041.92 73.7104C1041.71 73.8326 1041.47 73.9374 1041.19 74.0247L1040.84 74.136C1040.61 74.2059 1040.43 74.2801 1040.28 74.3587C1040.13 74.4329 1040.03 74.529 1039.95 74.6468C1039.88 74.7647 1039.84 74.9241 1039.84 75.1249V75.2362H1042.54V75.7142H1039.3Z" fill="#AF64EE"/>
<path d="M1044.86 75.8059C1044.54 75.8059 1044.25 75.7448 1043.99 75.6226C1043.74 75.5003 1043.54 75.3235 1043.39 75.0921C1043.24 74.8608 1043.17 74.5813 1043.17 74.2539V74.1295H1043.7V74.2474C1043.7 74.5835 1043.81 74.8477 1044.02 75.0397C1044.24 75.2318 1044.52 75.3279 1044.86 75.3279C1045.21 75.3279 1045.48 75.2384 1045.67 75.0594C1045.87 74.876 1045.97 74.6468 1045.97 74.3718V74.3194C1045.97 74.1186 1045.92 73.9571 1045.82 73.8348C1045.73 73.7082 1045.6 73.6165 1045.43 73.5598C1045.27 73.4987 1045.09 73.4681 1044.89 73.4681H1044.15V72.8067L1045.89 71.6869V71.6083H1043.28V71.1303H1046.46V71.8702L1044.75 72.9704V73.049H1045.08C1045.33 73.049 1045.57 73.097 1045.78 73.1931C1046 73.2847 1046.17 73.4244 1046.3 73.6122C1046.43 73.7955 1046.5 74.0269 1046.5 74.3063V74.3783C1046.5 74.6665 1046.43 74.9175 1046.29 75.1314C1046.16 75.3453 1045.97 75.5112 1045.72 75.6291C1045.48 75.747 1045.19 75.8059 1044.86 75.8059Z" fill="#AF64EE"/>
<path d="M1050.49 75.8059C1050.15 75.8059 1049.86 75.7426 1049.62 75.616C1049.37 75.485 1049.18 75.3061 1049.05 75.079C1048.91 74.8477 1048.84 74.5813 1048.84 74.2801V74.2015H1049.37V74.2605C1049.37 74.6054 1049.47 74.8695 1049.68 75.0528C1049.88 75.2362 1050.14 75.3279 1050.47 75.3279C1050.82 75.3279 1051.1 75.2297 1051.29 75.0332C1051.49 74.8367 1051.59 74.5683 1051.59 74.2277V74.1688C1051.59 73.8414 1051.49 73.5816 1051.3 73.3895C1051.11 73.1931 1050.87 73.0948 1050.57 73.0948C1050.39 73.0948 1050.25 73.1232 1050.13 73.18C1050.02 73.2323 1049.93 73.3 1049.87 73.383C1049.8 73.4615 1049.75 73.5379 1049.7 73.6122H1048.98V71.1303H1051.99V71.6083H1049.51V73.1931H1049.6C1049.65 73.1057 1049.72 73.0206 1049.8 72.9377C1049.89 72.8547 1050 72.7849 1050.15 72.7281C1050.29 72.6713 1050.47 72.643 1050.68 72.643C1050.95 72.643 1051.19 72.7041 1051.4 72.8263C1051.62 72.9486 1051.8 73.1232 1051.92 73.3502C1052.05 73.5772 1052.12 73.8479 1052.12 74.1622V74.2343C1052.12 74.5442 1052.05 74.8171 1051.92 75.0528C1051.79 75.2886 1051.6 75.4741 1051.36 75.6095C1051.11 75.7404 1050.82 75.8059 1050.49 75.8059Z" fill="#AF64EE"/>
<path d="M1054.46 75.8059C1054.15 75.8059 1053.86 75.7448 1053.62 75.6226C1053.37 75.496 1053.18 75.317 1053.03 75.0856C1052.89 74.8542 1052.82 74.5792 1052.82 74.2605V72.6626C1052.82 72.3177 1052.89 72.0252 1053.03 71.7851C1053.16 71.545 1053.35 71.3616 1053.6 71.235C1053.84 71.1041 1054.14 71.0386 1054.48 71.0386C1054.82 71.0386 1055.1 71.0997 1055.34 71.2219C1055.58 71.3398 1055.76 71.5035 1055.88 71.7131C1056.01 71.9183 1056.07 72.1562 1056.07 72.4269H1055.53C1055.53 72.1562 1055.45 71.9379 1055.27 71.772C1055.1 71.6018 1054.83 71.5166 1054.48 71.5166C1054.12 71.5166 1053.84 71.6148 1053.65 71.8113C1053.45 72.0034 1053.35 72.2697 1053.35 72.6102V73.2454H1053.45C1053.52 73.1145 1053.65 72.9944 1053.84 72.8853C1054.02 72.7718 1054.28 72.715 1054.6 72.715C1054.88 72.715 1055.13 72.7761 1055.36 72.8984C1055.58 73.0206 1055.77 73.1931 1055.9 73.4157C1056.04 73.6384 1056.1 73.9025 1056.1 74.2081V74.2867C1056.1 74.5966 1056.03 74.8651 1055.89 75.0921C1055.75 75.3192 1055.55 75.496 1055.31 75.6226C1055.06 75.7448 1054.77 75.8059 1054.46 75.8059ZM1054.46 75.3279C1054.79 75.3279 1055.06 75.234 1055.27 75.0463C1055.47 74.8586 1055.57 74.6032 1055.57 74.2801V74.2277C1055.57 74.0094 1055.53 73.8217 1055.43 73.6645C1055.34 73.5074 1055.21 73.3851 1055.04 73.2978C1054.88 73.2061 1054.68 73.1603 1054.46 73.1603C1054.24 73.1603 1054.05 73.2061 1053.88 73.2978C1053.72 73.3851 1053.59 73.5074 1053.49 73.6645C1053.4 73.8217 1053.35 74.0094 1053.35 74.2277V74.2801C1053.35 74.6032 1053.46 74.8586 1053.66 75.0463C1053.87 75.234 1054.13 75.3279 1054.46 75.3279Z" fill="#AF64EE"/>
<path d="M1058.48 75.8059C1058.12 75.8059 1057.82 75.7535 1057.55 75.6488C1057.3 75.5396 1057.09 75.389 1056.95 75.1969C1056.81 75.0005 1056.74 74.7713 1056.74 74.5093V74.4373C1056.74 74.2103 1056.79 74.0225 1056.89 73.8741C1056.98 73.7257 1057.1 73.6122 1057.23 73.5336C1057.37 73.4506 1057.5 73.3982 1057.62 73.3764V73.2913C1057.5 73.2564 1057.38 73.1996 1057.25 73.121C1057.13 73.0424 1057.03 72.9355 1056.94 72.8001C1056.87 72.6648 1056.83 72.4989 1056.83 72.3024V72.2304C1056.83 71.9816 1056.9 71.7698 1057.04 71.5952C1057.18 71.4162 1057.38 71.2787 1057.63 71.1826C1057.87 71.0866 1058.16 71.0386 1058.48 71.0386C1058.8 71.0386 1059.08 71.0866 1059.33 71.1826C1059.58 71.2787 1059.77 71.4162 1059.91 71.5952C1060.05 71.7698 1060.13 71.9816 1060.13 72.2304V72.3024C1060.13 72.4989 1060.09 72.6648 1060.01 72.8001C1059.93 72.9355 1059.83 73.0424 1059.71 73.121C1059.59 73.1996 1059.46 73.2564 1059.34 73.2913V73.3764C1059.46 73.3982 1059.59 73.4506 1059.73 73.5336C1059.86 73.6122 1059.98 73.7257 1060.07 73.8741C1060.16 74.0225 1060.21 74.2103 1060.21 74.4373V74.5093C1060.21 74.7713 1060.14 75.0005 1060 75.1969C1059.86 75.389 1059.66 75.5396 1059.4 75.6488C1059.14 75.7535 1058.83 75.8059 1058.48 75.8059ZM1058.48 75.3279C1058.85 75.3279 1059.14 75.2558 1059.35 75.1118C1059.57 74.9677 1059.68 74.7582 1059.68 74.4831V74.4307C1059.68 74.1557 1059.57 73.9461 1059.36 73.8021C1059.15 73.658 1058.85 73.586 1058.48 73.586C1058.11 73.586 1057.81 73.658 1057.6 73.8021C1057.39 73.9461 1057.28 74.1557 1057.28 74.4307V74.4831C1057.28 74.7582 1057.39 74.9677 1057.6 75.1118C1057.82 75.2558 1058.11 75.3279 1058.48 75.3279ZM1058.48 73.1079C1058.83 73.1079 1059.1 73.0424 1059.3 72.9115C1059.5 72.7761 1059.6 72.5862 1059.6 72.3417V72.2894C1059.6 72.0405 1059.5 71.8506 1059.3 71.7196C1059.09 71.5843 1058.82 71.5166 1058.48 71.5166C1058.13 71.5166 1057.86 71.5843 1057.66 71.7196C1057.46 71.8506 1057.36 72.0405 1057.36 72.2894V72.3417C1057.36 72.5862 1057.46 72.7761 1057.66 72.9115C1057.86 73.0424 1058.13 73.1079 1058.48 73.1079Z" fill="#AF64EE"/>
<path d="M1063.12 75.7142V74.7778H1060.73V74.1491L1062.65 71.1303H1063.65V74.2998H1064.44V74.7778H1063.65V75.7142H1063.12ZM1061.26 74.2998H1063.12V71.4511H1063.03L1061.26 74.2212V74.2998Z" fill="#AF64EE"/>
<path d="M949.462 124.41V122.234L947.381 118.413H948.426L949.865 121.129H949.994L951.433 118.413H952.478L950.396 122.234V124.41H949.462Z" fill="#02FE57"/>
<path d="M954.459 124.53C954.036 124.53 953.659 124.444 953.328 124.273C953.003 124.095 952.746 123.844 952.557 123.519C952.369 123.193 952.274 122.808 952.274 122.362V122.234C952.274 121.788 952.369 121.406 952.557 121.086C952.746 120.76 953.003 120.509 953.328 120.332C953.659 120.155 954.036 120.067 954.459 120.067C954.881 120.067 955.258 120.155 955.59 120.332C955.921 120.509 956.181 120.76 956.369 121.086C956.558 121.406 956.652 121.788 956.652 122.234V122.362C956.652 122.808 956.558 123.193 956.369 123.519C956.181 123.844 955.921 124.095 955.59 124.273C955.258 124.444 954.881 124.53 954.459 124.53ZM954.459 123.741C954.847 123.741 955.161 123.619 955.401 123.373C955.647 123.122 955.769 122.776 955.769 122.337V122.259C955.769 121.82 955.65 121.477 955.41 121.232C955.17 120.98 954.853 120.855 954.459 120.855C954.076 120.855 953.762 120.98 953.517 121.232C953.277 121.477 953.157 121.82 953.157 122.259V122.337C953.157 122.776 953.277 123.122 953.517 123.373C953.762 123.619 954.076 123.741 954.459 123.741Z" fill="#02FE57"/>
<path d="M959.369 124.487C959.049 124.487 958.764 124.415 958.513 124.273C958.261 124.13 958.064 123.927 957.922 123.664C957.779 123.402 957.707 123.088 957.707 122.722V120.186H958.59V122.662C958.59 123.028 958.681 123.299 958.864 123.476C959.047 123.647 959.301 123.733 959.626 123.733C959.986 123.733 960.274 123.613 960.491 123.373C960.714 123.128 960.826 122.776 960.826 122.319V120.186H961.708V124.41H960.843V123.776H960.706C960.626 123.947 960.483 124.11 960.277 124.264C960.072 124.412 959.769 124.487 959.369 124.487Z" fill="#02FE57"/>
<path d="M963.012 124.41V120.186H963.877V120.683H964.014C964.083 120.506 964.191 120.378 964.34 120.298C964.494 120.212 964.682 120.169 964.905 120.169H965.411V120.966H964.871C964.585 120.966 964.351 121.046 964.169 121.206C963.986 121.36 963.894 121.6 963.894 121.925V124.41H963.012Z" fill="#02FE57"/>
<path d="M950.412 134.122C950.007 134.122 949.638 134.037 949.307 133.865C948.982 133.694 948.722 133.445 948.528 133.12C948.339 132.794 948.245 132.403 948.245 131.946V131.835C948.245 131.378 948.339 130.99 948.528 130.67C948.722 130.345 948.982 130.096 949.307 129.925C949.638 129.748 950.007 129.659 950.412 129.659C950.818 129.659 951.163 129.733 951.449 129.882C951.734 130.03 951.963 130.227 952.134 130.473C952.311 130.719 952.425 130.99 952.477 131.287L951.62 131.467C951.592 131.278 951.532 131.107 951.44 130.953C951.349 130.799 951.22 130.676 951.055 130.584C950.889 130.493 950.681 130.447 950.429 130.447C950.184 130.447 949.961 130.504 949.761 130.619C949.567 130.727 949.413 130.887 949.299 131.098C949.184 131.304 949.127 131.555 949.127 131.852V131.929C949.127 132.226 949.184 132.48 949.299 132.692C949.413 132.903 949.567 133.063 949.761 133.171C949.961 133.28 950.184 133.334 950.429 133.334C950.801 133.334 951.083 133.24 951.277 133.051C951.472 132.857 951.594 132.612 951.646 132.315L952.502 132.512C952.434 132.803 952.311 133.071 952.134 133.317C951.963 133.563 951.734 133.76 951.449 133.908C951.163 134.051 950.818 134.122 950.412 134.122Z" fill="#02FE57"/>
<path d="M953.52 134.002V129.779H954.385V130.276H954.522C954.591 130.099 954.699 129.97 954.848 129.891C955.002 129.805 955.19 129.762 955.413 129.762H955.919V130.559H955.379C955.093 130.559 954.859 130.639 954.677 130.799C954.494 130.953 954.402 131.193 954.402 131.518V134.002H953.52Z" fill="#02FE57"/>
<path d="M958.618 134.122C958.19 134.122 957.816 134.034 957.496 133.857C957.176 133.674 956.925 133.42 956.742 133.094C956.565 132.763 956.477 132.38 956.477 131.946V131.844C956.477 131.404 956.565 131.021 956.742 130.696C956.919 130.365 957.165 130.11 957.479 129.933C957.799 129.751 958.167 129.659 958.584 129.659C958.989 129.659 959.343 129.751 959.646 129.933C959.954 130.11 960.194 130.359 960.366 130.679C960.537 130.998 960.623 131.372 960.623 131.801V132.135H957.376C957.387 132.506 957.51 132.803 957.744 133.026C957.984 133.243 958.281 133.351 958.635 133.351C958.967 133.351 959.215 133.277 959.381 133.129C959.552 132.98 959.683 132.809 959.775 132.615L960.503 132.991C960.423 133.151 960.306 133.32 960.151 133.497C960.003 133.674 959.806 133.822 959.56 133.942C959.315 134.062 959.001 134.122 958.618 134.122ZM957.385 131.458H959.723C959.7 131.138 959.586 130.89 959.381 130.713C959.175 130.53 958.907 130.439 958.575 130.439C958.244 130.439 957.973 130.53 957.762 130.713C957.556 130.89 957.43 131.138 957.385 131.458Z" fill="#02FE57"/>
<path d="M963.432 134.122C963.084 134.122 962.761 134.037 962.464 133.865C962.167 133.694 961.927 133.448 961.745 133.129C961.568 132.803 961.479 132.412 961.479 131.955V131.826C961.479 131.375 961.568 130.987 961.745 130.661C961.922 130.336 962.159 130.088 962.456 129.916C962.753 129.745 963.078 129.659 963.432 129.659C963.706 129.659 963.935 129.694 964.117 129.762C964.306 129.831 964.46 129.919 964.58 130.028C964.7 130.13 964.791 130.239 964.854 130.353H964.991V128.006H965.874V134.002H965.008V133.403H964.871C964.763 133.585 964.597 133.751 964.374 133.899C964.157 134.048 963.843 134.122 963.432 134.122ZM963.681 133.351C964.063 133.351 964.377 133.228 964.623 132.983C964.874 132.737 965 132.386 965 131.929V131.852C965 131.401 964.877 131.053 964.631 130.807C964.386 130.562 964.069 130.439 963.681 130.439C963.304 130.439 962.99 130.562 962.738 130.807C962.493 131.053 962.37 131.401 962.37 131.852V131.929C962.37 132.386 962.493 132.737 962.738 132.983C962.99 133.228 963.304 133.351 963.681 133.351Z" fill="#02FE57"/>
<path d="M967.172 134.002V129.779H968.055V134.002H967.172ZM967.618 129.205C967.447 129.205 967.301 129.151 967.181 129.042C967.067 128.928 967.01 128.783 967.01 128.606C967.01 128.429 967.067 128.286 967.181 128.177C967.301 128.063 967.447 128.006 967.618 128.006C967.795 128.006 967.94 128.063 968.055 128.177C968.169 128.286 968.226 128.429 968.226 128.606C968.226 128.783 968.169 128.928 968.055 129.042C967.94 129.151 967.795 129.205 967.618 129.205Z" fill="#02FE57"/>
<path d="M970.949 134.002C970.692 134.002 970.486 133.925 970.332 133.771C970.184 133.617 970.109 133.411 970.109 133.154V130.524H968.944V129.779H970.109V128.383H970.992V129.779H972.251V130.524H970.992V133C970.992 133.171 971.072 133.257 971.232 133.257H972.114V134.002H970.949Z" fill="#02FE57"/>
<path d="M682 146.16C735.671 100.239 841.065 128.06 851.27 151.262C857.608 165.675 834.847 166.743 833.207 151.262C831.791 137.892 858.138 103.62 912 102.628" stroke="url(#paint18_linear_2667_15306)" stroke-width="0.711824"/>
<path d="M767.254 149.341L770.563 155.032L776.254 158.341L770.563 161.65L767.254 167.341L763.945 161.65L758.254 158.341L763.945 155.032L767.254 149.341Z" stroke="url(#paint19_linear_2667_15306)" stroke-width="1.2"/>
<g style="mix-blend-mode:hard-light" opacity="0.4" filter="url(#filter1_f_2667_15306)">
<path d="M895.02 182.085C881.799 168.936 882.077 147.647 895.64 134.533C909.204 121.42 930.918 121.448 944.139 134.597C957.36 147.746 957.083 169.035 943.519 182.149C929.955 195.262 908.242 195.234 895.02 182.085Z" fill="#AF64EE"/>
</g>
<defs>
<filter id="filter0_f_2667_15306" x="0.976562" y="-0.885376" width="234.193" height="232.348" filterUnits="userSpaceOnUse" color-interpolation-filters="sRGB">
<feFlood flood-opacity="0" result="BackgroundImageFix"/>
<feBlend mode="normal" in="SourceGraphic" in2="BackgroundImageFix" result="shape"/>
<feGaussianBlur stdDeviation="35" result="effect1_foregroundBlur_2667_15306"/>
</filter>
<filter id="filter1_f_2667_15306" x="840.985" y="80.4184" width="157.19" height="155.845" filterUnits="userSpaceOnUse" color-interpolation-filters="sRGB">
<feFlood flood-opacity="0" result="BackgroundImageFix"/>
<feBlend mode="normal" in="SourceGraphic" in2="BackgroundImageFix" result="shape"/>
<feGaussianBlur stdDeviation="22.149" result="effect1_foregroundBlur_2667_15306"/>
</filter>
<linearGradient id="paint0_linear_2667_15306" x1="94.3593" y1="50.2488" x2="63.6969" y2="62.4547" gradientUnits="userSpaceOnUse">
<stop stop-color="#DACAFC" stop-opacity="0"/>
<stop offset="0.192708" stop-color="#DACAFC"/>
<stop offset="0.640505" stop-color="#AF64EE"/>
<stop offset="1" stop-color="#AF64EE" stop-opacity="0"/>
</linearGradient>
<linearGradient id="paint1_linear_2667_15306" x1="96.3593" y1="162.221" x2="65.6969" y2="174.427" gradientUnits="userSpaceOnUse">
<stop stop-color="#DACAFC" stop-opacity="0"/>
<stop offset="0.192708" stop-color="#DACAFC"/>
<stop offset="0.640505" stop-color="#AF64EE"/>
<stop offset="1" stop-color="#AF64EE" stop-opacity="0"/>
</linearGradient>
<linearGradient id="paint2_linear_2667_15306" x1="179.293" y1="146.289" x2="169.315" y2="105.09" gradientUnits="userSpaceOnUse">
<stop offset="0.18595" stop-color="#AF64EE"/>
<stop offset="0.583448" stop-color="#AF64EE" stop-opacity="0"/>
</linearGradient>
<linearGradient id="paint3_linear_2667_15306" x1="157" y1="77.5" x2="509" y2="110.5" gradientUnits="userSpaceOnUse">
<stop stop-color="#AF64EE" stop-opacity="0"/>
<stop offset="0.38752" stop-color="#02FE57"/>
<stop offset="0.575155" stop-color="#AF64EE"/>
<stop offset="0.9375" stop-color="#AF64EE" stop-opacity="0"/>
</linearGradient>
<linearGradient id="paint4_linear_2667_15306" x1="1273.49" y1="237.076" x2="958.068" y2="93.1683" gradientUnits="userSpaceOnUse">
<stop stop-color="#C47EFF" stop-opacity="0.8"/>
<stop offset="0.928862" stop-color="#AF64EE" stop-opacity="0"/>
</linearGradient>
<linearGradient id="paint5_linear_2667_15306" x1="1126.09" y1="138.147" x2="1052.7" y2="68.3014" gradientUnits="userSpaceOnUse">
<stop offset="0.125" stop-color="#AF64EE"/>
<stop offset="0.9375" stop-color="#AF64EE" stop-opacity="0"/>
</linearGradient>
<linearGradient id="paint6_linear_2667_15306" x1="1258.54" y1="220.056" x2="943.117" y2="76.1482" gradientUnits="userSpaceOnUse">
<stop stop-color="#C47EFF" stop-opacity="0.8"/>
<stop offset="0.928862" stop-color="#AF64EE" stop-opacity="0"/>
</linearGradient>
<linearGradient id="paint7_linear_2667_15306" x1="967.984" y1="361.429" x2="1122.68" y2="337.439" gradientUnits="userSpaceOnUse">
<stop stop-color="#2AFC61"/>
<stop offset="1" stop-color="#AE69EB"/>
</linearGradient>
<linearGradient id="paint8_linear_2667_15306" x1="1204.81" y1="133.386" x2="1203.67" y2="104.994" gradientUnits="userSpaceOnUse">
<stop stop-color="#2AFC61"/>
<stop offset="1" stop-color="#AE69EB"/>
</linearGradient>
<linearGradient id="paint9_linear_2667_15306" x1="1118.47" y1="-2291.71" x2="946.516" y2="-2291.71" gradientUnits="userSpaceOnUse">
<stop stop-color="#AF64EE" stop-opacity="0"/>
<stop offset="0.291667" stop-color="#AF64EE"/>
<stop offset="0.5" stop-color="#02FE57"/>
<stop offset="0.776042" stop-color="#AF64EE"/>
<stop offset="1" stop-color="#AF64EE" stop-opacity="0"/>
</linearGradient>
<linearGradient id="paint10_linear_2667_15306" x1="953.943" y1="76.6329" x2="943.373" y2="77.5315" gradientUnits="userSpaceOnUse">
<stop offset="0.156205" stop-color="#AF64EE"/>
<stop offset="1" stop-color="#02FE57"/>
</linearGradient>
<linearGradient id="paint11_linear_2667_15306" x1="956.352" y1="74.5912" x2="947.55" y2="75.2277" gradientUnits="userSpaceOnUse">
<stop offset="0.156205" stop-color="#AF64EE"/>
<stop offset="1" stop-color="#02FE57"/>
</linearGradient>
<linearGradient id="paint12_linear_2667_15306" x1="955.133" y1="75.6851" x2="945.433" y2="76.3966" gradientUnits="userSpaceOnUse">
<stop offset="0.156205" stop-color="#AF64EE"/>
<stop offset="1" stop-color="#02FE57"/>
</linearGradient>
<linearGradient id="paint13_linear_2667_15306" x1="951.965" y1="78.0073" x2="944.364" y2="77.6535" gradientUnits="userSpaceOnUse">
<stop offset="0.100929" stop-color="#AF64EE"/>
<stop offset="1" stop-color="#02FE57"/>
</linearGradient>
<linearGradient id="paint14_linear_2667_15306" x1="950.2" y1="77.9888" x2="945.463" y2="77.9513" gradientUnits="userSpaceOnUse">
<stop offset="0.144404" stop-color="#AF64EE"/>
<stop offset="1" stop-color="#02FE57"/>
</linearGradient>
<linearGradient id="paint15_linear_2667_15306" x1="949.374" y1="78.7841" x2="944.625" y2="78.7481" gradientUnits="userSpaceOnUse">
<stop offset="0.144404" stop-color="#AF64EE"/>
<stop offset="1" stop-color="#02FE57"/>
</linearGradient>
<linearGradient id="paint16_linear_2667_15306" x1="948.54" y1="79.5753" x2="943.811" y2="79.5373" gradientUnits="userSpaceOnUse">
<stop offset="0.144404" stop-color="#AF64EE"/>
<stop offset="1" stop-color="#02FE57"/>
</linearGradient>
<linearGradient id="paint17_linear_2667_15306" x1="948.603" y1="80.4067" x2="943.024" y2="80.4837" gradientUnits="userSpaceOnUse">
<stop offset="0.144404" stop-color="#AF64EE"/>
<stop offset="0.942412" stop-color="#02FE57"/>
</linearGradient>
<linearGradient id="paint18_linear_2667_15306" x1="633.49" y1="198.717" x2="995.309" y2="157.547" gradientUnits="userSpaceOnUse">
<stop stop-color="#AF64EE" stop-opacity="0"/>
<stop offset="0.38752" stop-color="#02FE57"/>
<stop offset="0.575155" stop-color="#AF64EE"/>
<stop offset="0.9375" stop-color="#AF64EE" stop-opacity="0"/>
</linearGradient>
<linearGradient id="paint19_linear_2667_15306" x1="785.613" y1="162.301" x2="754.951" y2="174.507" gradientUnits="userSpaceOnUse">
<stop stop-color="#DACAFC" stop-opacity="0"/>
<stop offset="0.192708" stop-color="#DACAFC"/>
<stop offset="0.640505" stop-color="#AF64EE"/>
<stop offset="1" stop-color="#AF64EE" stop-opacity="0"/>
</linearGradient>
<clipPath id="clip0_2667_15306">
<rect width="12.3091" height="9.6454" fill="white" transform="matrix(0.996223 0.086828 -0.0874847 0.996166 944.445 69.9274)"/>
</clipPath>
</defs>
</svg>
