<svg width="202" height="65" viewBox="0 0 202 65" fill="none" xmlns="http://www.w3.org/2000/svg">
<path fill-rule="evenodd" clip-rule="evenodd" d="M21.3831 18.7432C21.4052 18.0736 21.9653 17.5488 22.6342 17.571C26.4232 17.6966 29.8604 19.2184 32.4463 21.6361C33.3158 22.4491 33.2531 23.767 32.4786 24.5424L30.2575 26.7662C31.4731 28.4317 32.1905 30.4846 32.1905 32.7054C32.1905 34.6265 31.6524 36.4255 30.7183 37.9553C30.3693 38.5269 29.6236 38.7069 29.0526 38.3575C28.4817 38.008 28.3019 37.2615 28.6509 36.6899C29.359 35.5303 29.7674 34.1673 29.7674 32.7054C29.7674 30.7413 29.0283 28.95 27.8132 27.5952C27.7962 27.58 27.7796 27.5643 27.7632 27.5479C27.7241 27.5088 27.6883 27.4677 27.6557 27.4248C26.5276 26.2409 25.0242 25.4187 23.3366 25.1496V27.0051V27.0068V27.64V27.8414C25.5157 28.3842 27.1312 30.3545 27.1312 32.7054C27.1312 35.4734 24.8899 37.7174 22.125 37.7174C19.3602 37.7174 17.1189 35.4734 17.1189 32.7054C17.1189 32.051 17.2447 31.4231 17.4747 30.8467C17.7229 30.2246 18.4279 29.9218 19.0493 30.1703C19.6707 30.4188 19.9732 31.1246 19.7249 31.7467C19.6073 32.0416 19.542 32.3644 19.542 32.7054C19.542 34.1337 20.6984 35.2914 22.125 35.2914C23.5515 35.2914 24.7081 34.1337 24.7081 32.7054C24.7081 31.4746 23.8481 30.442 22.6956 30.1824C21.8515 29.9922 20.9134 29.2476 20.9134 28.0621V27.6417V27.64V27.0068V25.1496C17.2684 25.7308 14.4826 28.8924 14.4826 32.7054C14.4826 35.5872 16.0734 38.0988 18.4296 39.4048C19.015 39.7292 19.2269 40.4674 18.9028 41.0535C18.5787 41.6397 17.8414 41.8517 17.256 41.5271C14.16 39.8111 12.0594 36.5047 12.0594 32.7054C12.0594 30.3779 12.8475 28.2348 14.1711 26.5288L12.2953 24.6507C10.4994 26.8445 9.42313 29.6482 9.42313 32.7054C9.42313 33.3754 8.88069 33.9183 8.21156 33.9183C7.54243 33.9183 7 33.3754 7 32.7054C7 28.5439 8.67832 24.7724 11.3914 22.0366C13.1266 20.2868 15.2872 18.958 17.707 18.2191C18.347 18.0237 19.0241 18.3847 19.2193 19.0255C19.4145 19.6663 19.0539 20.3442 18.4138 20.5396C16.7798 21.0385 15.2845 21.8591 14.0019 22.9285L15.8759 24.8048C17.5927 23.4419 19.7639 22.628 22.125 22.628C24.5922 22.628 26.8523 23.5167 28.6029 24.9919L30.4724 23.1201C28.3395 21.2563 25.5813 20.096 22.5539 19.9956C21.8851 19.9735 21.3609 19.4127 21.3831 18.7432ZM34.321 25.8865C34.931 25.6115 35.6484 25.8838 35.9231 26.4946C36.776 28.3913 37.25 30.4946 37.25 32.7054C37.25 39.2794 33.0664 44.872 27.2233 46.966C26.5932 47.1919 25.8998 46.8635 25.6742 46.2327C25.4487 45.6021 25.7766 44.9077 26.4066 44.682C31.3168 42.9223 34.8269 38.2226 34.8269 32.7054C34.8269 30.8446 34.4285 29.0803 33.7135 27.4906C33.4388 26.8797 33.7108 26.1616 34.321 25.8865ZM8.5723 36.0975C9.20494 35.8793 9.89446 36.2158 10.1124 36.8492C11.7034 41.4733 15.8832 44.8889 20.9134 45.3652V44.419V44.4167V42.4141C20.9134 41.252 21.8395 40.4184 22.8532 40.3226C23.9012 40.2237 24.8866 39.913 25.7675 39.4337C26.3555 39.114 27.091 39.3318 27.4105 39.9205C27.7299 40.5091 27.5123 41.2456 26.9244 41.5655C25.8343 42.1583 24.6222 42.5559 23.3366 42.7104V44.5247V44.527V45.7909C23.3366 46.9078 22.4174 47.8932 21.2093 47.8209C14.9797 47.4479 9.77007 43.3029 7.82139 37.6394C7.60346 37.006 7.93965 36.3156 8.5723 36.0975ZM146.943 40.5063C145.983 40.5063 145.109 40.2927 144.322 39.8652C143.548 39.4245 142.928 38.7901 142.461 37.962C142.007 37.1206 141.78 36.0989 141.78 34.8968V31.5311C141.78 29.7281 142.287 28.3457 143.301 27.3841C144.315 26.4091 145.689 25.9216 147.423 25.9216C149.144 25.9216 150.471 26.3824 151.405 27.304C152.353 28.2122 152.826 29.4476 152.826 31.0103V31.0904H150.225V30.9301C150.225 30.436 150.118 29.9885 149.905 29.5878C149.704 29.1872 149.398 28.8733 148.984 28.6463C148.57 28.4058 148.05 28.2856 147.423 28.2856C146.489 28.2856 145.756 28.5728 145.222 29.1471C144.688 29.7214 144.422 30.5027 144.422 31.4911V34.9369C144.422 35.9118 144.688 36.6999 145.222 37.3009C145.756 37.8886 146.503 38.1824 147.463 38.1824C148.424 38.1824 149.124 37.9287 149.564 37.4211C150.005 36.9135 150.225 36.2724 150.225 35.4979V35.2975H146.903V33.0537H152.826V40.2259H150.385V38.8836H150.025C149.931 39.1107 149.778 39.3511 149.564 39.6048C149.364 39.8585 149.057 40.0723 148.644 40.2459C148.23 40.4195 147.663 40.5063 146.943 40.5063ZM47.2078 26.2021V40.2259H49.8492V26.2021H47.2078ZM52.484 26.2021V40.2259H55.0853V28.0052H55.4455L58.2269 40.2259H63.2495V26.2021H60.6482V38.4228H60.288L57.5066 26.2021H52.484ZM69.131 40.2259V28.6062H65.0489V26.2021H75.8545V28.6062H71.7724V40.2259H69.131ZM77.6532 26.2021V40.2259H86.7779V37.8218H80.2946V34.3559H86.0976V31.9519H80.2946V28.6062H86.6579V26.2021H77.6532ZM88.7332 40.2259V26.2021H94.8163C95.6967 26.2021 96.4637 26.3557 97.1175 26.6629C97.7711 26.9701 98.2781 27.4042 98.6383 27.9651C98.9984 28.5261 99.1785 29.1872 99.1785 29.9485V30.1889C99.1785 31.0303 98.9784 31.7114 98.5782 32.2323C98.178 32.7532 97.6843 33.1339 97.0975 33.3743V33.7349C97.631 33.7616 98.0445 33.9485 98.3381 34.2958C98.6315 34.6297 98.7783 35.0771 98.7783 35.6381V40.2259H96.137V36.0187C96.137 35.6982 96.0502 35.4378 95.8768 35.2374C95.7168 35.0371 95.4432 34.9369 95.0564 34.9369H91.3745V40.2259H88.7332ZM91.3745 32.5328H94.5361C95.163 32.5328 95.65 32.3659 95.9969 32.032C96.3571 31.6847 96.5372 31.2306 96.5372 30.6697V30.4693C96.5372 29.9084 96.3637 29.461 96.0169 29.1271C95.67 28.7798 95.1765 28.6062 94.5361 28.6062H91.3745V32.5328ZM101.376 26.2021V40.2259H103.978V28.0052H104.338L107.119 40.2259H112.142V26.2021H109.541V38.4228H109.18L106.399 26.2021H101.376ZM114.782 40.2259V26.2021H123.786V28.6062H117.423V31.9519H123.226V34.3559H117.423V37.8218H123.906V40.2259H114.782ZM129.103 28.6062V40.2259H131.745V28.6062H135.827V26.2021H125.021V28.6062H129.103ZM158.071 26.2021L154.389 40.2259H157.11L157.871 37.1406H162.873L163.634 40.2259H166.356L162.673 26.2021H158.071ZM162.253 34.6965H158.491L160.192 27.8649H160.552L162.253 34.6965ZM168.032 40.2259V26.2021H172.934L175.356 38.4228H175.715L178.137 26.2021H183.039V40.2259H180.479V28.1454H180.118L177.716 40.2259H173.355L170.953 28.1454H170.594V40.2259H168.032ZM185.678 26.2021V40.2259H194.802V37.8218H188.319V34.3559H194.122V31.9519H188.319V28.6062H194.683V26.2021H185.678Z" fill="white"/>
</svg>
