<svg viewBox="0 0 386 386" fill="none" xmlns="http://www.w3.org/2000/svg">
<g clip-path="url(#clip0_135_4535)">
<g style="mix-blend-mode:hard-light" opacity="0.5">
<path d="M192.9 385.81C299.44 385.81 385.8 299.44 385.8 192.91C385.8 86.38 299.44 0 192.9 0C86.36 0 0 86.37 0 192.9C0 299.43 86.37 385.8 192.9 385.8V385.81Z" fill="url(#paint0_radial_135_4535)"/>
</g>
<path d="M137.44 116.53L154.21 106.41C154.21 106.41 177.09 121.58 201.52 102.19" stroke="url(#paint1_linear_135_4535)" stroke-width="2" stroke-linejoin="bevel"/>
<path d="M209.35 88.22L226.23 78.11C226.23 78.11 243.88 149.49 296.51 171.76C296.51 171.76 284.19 265.03 230.4 287.94L204.89 296.12" fill="#0E0E1B"/>
<path d="M209.35 88.22L226.23 78.11C226.23 78.11 243.88 149.49 296.51 171.76C296.51 171.76 284.19 265.03 230.4 287.94L204.89 296.12" stroke="url(#paint2_linear_135_4535)" stroke-width="2" stroke-linejoin="bevel"/>
<path d="M137.44 116.53C137.44 116.53 185.02 143.04 209.36 88.22C209.36 88.22 218.35 147.09 279.64 182.2C279.64 182.2 261.62 278.28 204.9 296.12C204.9 296.12 138.47 227.76 137.44 116.54V116.53Z" fill="#0E0E1B" stroke="url(#paint3_linear_135_4535)" stroke-width="2" stroke-linejoin="bevel"/>
<path d="M279.64 181.86L296.51 171.75" stroke="url(#paint4_linear_135_4535)" stroke-width="2" stroke-linejoin="bevel"/>
<path d="M85.08 250.31C87.383 250.31 89.25 248.443 89.25 246.14C89.25 243.837 87.383 241.97 85.08 241.97C82.777 241.97 80.91 243.837 80.91 246.14C80.91 248.443 82.777 250.31 85.08 250.31Z" fill="#AB6CE8"/>
<g style="mix-blend-mode:hard-light">
<path d="M85.08 263.47C94.65 263.47 102.41 255.71 102.41 246.14C102.41 236.57 94.65 228.81 85.08 228.81C75.51 228.81 67.75 236.57 67.75 246.14C67.75 255.71 75.51 263.47 85.08 263.47Z" fill="url(#paint5_radial_135_4535)"/>
</g>
<path d="M117.9 312.02C119.33 312.02 120.49 310.86 120.49 309.43C120.49 308 119.33 306.84 117.9 306.84C116.47 306.84 115.31 308 115.31 309.43C115.31 310.86 116.47 312.02 117.9 312.02Z" fill="#AB6CE8"/>
<g style="mix-blend-mode:hard-light">
<path d="M117.9 320.18C123.84 320.18 128.65 315.37 128.65 309.43C128.65 303.49 123.84 298.68 117.9 298.68C111.96 298.68 107.15 303.49 107.15 309.43C107.15 315.37 111.96 320.18 117.9 320.18Z" fill="url(#paint6_radial_135_4535)"/>
</g>
<path d="M101.49 201.06C102.363 201.06 103.07 200.353 103.07 199.48C103.07 198.607 102.363 197.9 101.49 197.9C100.617 197.9 99.91 198.607 99.91 199.48C99.91 200.353 100.617 201.06 101.49 201.06Z" fill="#AB6CE8"/>
<g style="mix-blend-mode:hard-light">
<path d="M101.49 206.06C105.12 206.06 108.07 203.12 108.07 199.48C108.07 195.84 105.13 192.9 101.49 192.9C97.85 192.9 94.91 195.84 94.91 199.48C94.91 203.12 97.85 206.06 101.49 206.06Z" fill="url(#paint7_radial_135_4535)"/>
</g>
<path d="M120.83 144.51C122.26 144.51 123.42 143.35 123.42 141.92C123.42 140.49 122.26 139.33 120.83 139.33C119.4 139.33 118.24 140.49 118.24 141.92C118.24 143.35 119.4 144.51 120.83 144.51Z" fill="#AB6CE8"/>
<g style="mix-blend-mode:hard-light">
<path d="M120.83 152.67C126.77 152.67 131.58 147.86 131.58 141.92C131.58 135.98 126.77 131.17 120.83 131.17C114.89 131.17 110.08 135.98 110.08 141.92C110.08 147.86 114.89 152.67 120.83 152.67Z" fill="url(#paint8_radial_135_4535)"/>
</g>
<path d="M70.34 160.83C71.2126 160.83 71.92 160.123 71.92 159.25C71.92 158.377 71.2126 157.67 70.34 157.67C69.4674 157.67 68.76 158.377 68.76 159.25C68.76 160.123 69.4674 160.83 70.34 160.83Z" fill="#AB6CE8"/>
<g style="mix-blend-mode:hard-light">
<path d="M70.34 165.82C73.97 165.82 76.92 162.88 76.92 159.24C76.92 155.6 73.98 152.66 70.34 152.66C66.7 152.66 63.76 155.6 63.76 159.24C63.76 162.88 66.7 165.82 70.34 165.82Z" fill="url(#paint9_radial_135_4535)"/>
</g>
<path d="M162.57 288.08C163.443 288.08 164.15 287.373 164.15 286.5C164.15 285.627 163.443 284.92 162.57 284.92C161.697 284.92 160.99 285.627 160.99 286.5C160.99 287.373 161.697 288.08 162.57 288.08Z" fill="#AB6CE8"/>
<g style="mix-blend-mode:hard-light">
<path d="M162.57 293.08C166.2 293.08 169.15 290.14 169.15 286.5C169.15 282.86 166.21 279.92 162.57 279.92C158.93 279.92 155.99 282.86 155.99 286.5C155.99 290.14 158.93 293.08 162.57 293.08Z" fill="url(#paint10_radial_135_4535)"/>
</g>
<path d="M240.06 201.06C240.933 201.06 241.64 200.353 241.64 199.48C241.64 198.607 240.933 197.9 240.06 197.9C239.187 197.9 238.48 198.607 238.48 199.48C238.48 200.353 239.187 201.06 240.06 201.06Z" fill="#AB6CE8"/>
<g style="mix-blend-mode:hard-light">
<path d="M240.06 206.06C243.69 206.06 246.64 203.12 246.64 199.48C246.64 195.84 243.7 192.9 240.06 192.9C236.42 192.9 233.48 195.84 233.48 199.48C233.48 203.12 236.42 206.06 240.06 206.06Z" fill="url(#paint11_radial_135_4535)"/>
</g>
<path d="M212.27 260.76C214.573 260.76 216.44 258.893 216.44 256.59C216.44 254.287 214.573 252.42 212.27 252.42C209.967 252.42 208.1 254.287 208.1 256.59C208.1 258.893 209.967 260.76 212.27 260.76Z" fill="#AB6CE8"/>
<g style="mix-blend-mode:hard-light">
<path d="M212.27 273.92C221.84 273.92 229.6 266.16 229.6 256.59C229.6 247.02 221.84 239.26 212.27 239.26C202.7 239.26 194.94 247.02 194.94 256.59C194.94 266.16 202.7 273.92 212.27 273.92Z" fill="url(#paint12_radial_135_4535)"/>
</g>
<path d="M162.57 240.29C178.238 240.29 190.94 227.588 190.94 211.92C190.94 196.252 178.238 183.55 162.57 183.55C146.902 183.55 134.2 196.252 134.2 211.92C134.2 227.588 146.902 240.29 162.57 240.29Z" fill="url(#paint13_linear_135_4535)"/>
<path d="M151.66 214.1L159.3 221.74L175.67 203.18" stroke="#0E0E1B" stroke-width="2.27" stroke-linejoin="round"/>
<path d="M162.57 256.59C187.241 256.59 207.24 236.591 207.24 211.92C207.24 187.249 187.241 167.25 162.57 167.25C137.899 167.25 117.9 187.249 117.9 211.92C117.9 236.591 137.899 256.59 162.57 256.59Z" stroke="url(#paint14_linear_135_4535)" stroke-width="4.54" stroke-linejoin="round" stroke-dasharray="1.5 7.57"/>
<path d="M201.52 159.09C202.95 159.09 204.11 157.93 204.11 156.5C204.11 155.07 202.95 153.91 201.52 153.91C200.09 153.91 198.93 155.07 198.93 156.5C198.93 157.93 200.09 159.09 201.52 159.09Z" fill="#AB6CE8"/>
<g style="mix-blend-mode:hard-light">
<path d="M201.52 167.25C207.46 167.25 212.27 162.44 212.27 156.5C212.27 150.56 207.46 145.75 201.52 145.75C195.58 145.75 190.77 150.56 190.77 156.5C190.77 162.44 195.58 167.25 201.52 167.25Z" fill="url(#paint15_radial_135_4535)"/>
</g>
<path d="M231.02 321.76C231.893 321.76 232.6 321.053 232.6 320.18C232.6 319.307 231.893 318.6 231.02 318.6C230.147 318.6 229.44 319.307 229.44 320.18C229.44 321.053 230.147 321.76 231.02 321.76Z" fill="#AB6CE8"/>
<g style="mix-blend-mode:hard-light">
<path d="M231.02 326.75C234.65 326.75 237.6 323.81 237.6 320.17C237.6 316.53 234.66 313.59 231.02 313.59C227.38 313.59 224.44 316.53 224.44 320.17C224.44 323.81 227.38 326.75 231.02 326.75Z" fill="url(#paint16_radial_135_4535)"/>
</g>
<path d="M174.85 75.25C175.723 75.25 176.43 74.5426 176.43 73.67C176.43 72.7974 175.723 72.09 174.85 72.09C173.977 72.09 173.27 72.7974 173.27 73.67C173.27 74.5426 173.977 75.25 174.85 75.25Z" fill="#AB6CE8"/>
<g style="mix-blend-mode:hard-light">
<path d="M174.85 80.24C178.48 80.24 181.43 77.3 181.43 73.66C181.43 70.02 178.49 67.08 174.85 67.08C171.21 67.08 168.27 70.02 168.27 73.66C168.27 77.3 171.21 80.24 174.85 80.24Z" fill="url(#paint17_radial_135_4535)"/>
</g>
<path d="M285.64 258.17C286.513 258.17 287.22 257.463 287.22 256.59C287.22 255.717 286.513 255.01 285.64 255.01C284.767 255.01 284.06 255.717 284.06 256.59C284.06 257.463 284.767 258.17 285.64 258.17Z" fill="#AB6CE8"/>
<g style="mix-blend-mode:hard-light" opacity="0.7">
<path d="M285.64 263.17C289.27 263.17 292.22 260.23 292.22 256.59C292.22 252.95 289.28 250.01 285.64 250.01C282 250.01 279.06 252.95 279.06 256.59C279.06 260.23 282 263.17 285.64 263.17Z" fill="url(#paint18_radial_135_4535)"/>
</g>
<path d="M285.64 130.11C287.943 130.11 289.81 128.243 289.81 125.94C289.81 123.637 287.943 121.77 285.64 121.77C283.337 121.77 281.47 123.637 281.47 125.94C281.47 128.243 283.337 130.11 285.64 130.11Z" fill="#AB6CE8"/>
<g style="mix-blend-mode:hard-light" opacity="0.7">
<path d="M290.64 143.27C300.21 143.27 307.97 135.51 307.97 125.94C307.97 116.37 300.21 108.61 290.64 108.61C281.07 108.61 273.31 116.37 273.31 125.94C273.31 135.51 281.07 143.27 290.64 143.27Z" fill="url(#paint19_radial_135_4535)"/>
</g>
</g>
<defs>
<radialGradient id="paint0_radial_135_4535" cx="0" cy="0" r="1" gradientUnits="userSpaceOnUse" gradientTransform="translate(187.094 194.18) scale(215.798 215.798)">
<stop stop-color="#AB6CE8"/>
<stop offset="0.76" stop-color="#AB6CE8" stop-opacity="0"/>
</radialGradient>
<linearGradient id="paint1_linear_135_4535" x1="136.92" y1="109.4" x2="202.14" y2="109.4" gradientUnits="userSpaceOnUse">
<stop stop-color="#AF64EE" stop-opacity="0.4"/>
<stop offset="0.21" stop-color="#AF64EE"/>
<stop offset="0.68" stop-color="#02FE57"/>
<stop offset="0.92" stop-color="#AF64EE"/>
<stop offset="1" stop-color="#AF64EE" stop-opacity="0"/>
</linearGradient>
<linearGradient id="paint2_linear_135_4535" x1="204.59" y1="187.16" x2="297.5" y2="187.16" gradientUnits="userSpaceOnUse">
<stop stop-color="#AF64EE" stop-opacity="0.4"/>
<stop offset="0.21" stop-color="#AF64EE"/>
<stop offset="0.68" stop-color="#02FE57"/>
<stop offset="0.92" stop-color="#AF64EE"/>
<stop offset="1" stop-color="#AF64EE" stop-opacity="0"/>
</linearGradient>
<linearGradient id="paint3_linear_135_4535" x1="240.94" y1="105.73" x2="149.01" y2="264.96" gradientUnits="userSpaceOnUse">
<stop stop-color="#AF64EE" stop-opacity="0.4"/>
<stop offset="0.21" stop-color="#AF64EE"/>
<stop offset="0.68" stop-color="#02FE57"/>
<stop offset="0.92" stop-color="#AF64EE"/>
<stop offset="1" stop-color="#AF64EE" stop-opacity="0"/>
</linearGradient>
<linearGradient id="paint4_linear_135_4535" x1="279.12" y1="176.81" x2="297.03" y2="176.81" gradientUnits="userSpaceOnUse">
<stop stop-color="#AF64EE" stop-opacity="0.4"/>
<stop offset="0.21" stop-color="#AF64EE"/>
<stop offset="0.92" stop-color="#AF64EE"/>
<stop offset="1" stop-color="#AF64EE" stop-opacity="0"/>
</linearGradient>
<radialGradient id="paint5_radial_135_4535" cx="0" cy="0" r="1" gradientUnits="userSpaceOnUse" gradientTransform="translate(85 246) scale(16)">
<stop stop-color="#AB6CE8"/>
<stop offset="0.76" stop-color="#AB6CE8" stop-opacity="0"/>
</radialGradient>
<radialGradient id="paint6_radial_135_4535" cx="0" cy="0" r="1" gradientUnits="userSpaceOnUse" gradientTransform="translate(118 309) rotate(11.3099) scale(10.198 10.198)">
<stop stop-color="#AB6CE8"/>
<stop offset="0.76" stop-color="#AB6CE8" stop-opacity="0"/>
</radialGradient>
<radialGradient id="paint7_radial_135_4535" cx="0" cy="0" r="1" gradientUnits="userSpaceOnUse" gradientTransform="translate(101.5 199.5) rotate(84.8056) scale(5.52268 5.52268)">
<stop stop-color="#AB6CE8"/>
<stop offset="0.76" stop-color="#AB6CE8" stop-opacity="0"/>
</radialGradient>
<radialGradient id="paint8_radial_135_4535" cx="0" cy="0" r="1" gradientUnits="userSpaceOnUse" gradientTransform="translate(121 142) rotate(16.6992) scale(10.4403)">
<stop stop-color="#AB6CE8"/>
<stop offset="0.76" stop-color="#AB6CE8" stop-opacity="0"/>
</radialGradient>
<radialGradient id="paint9_radial_135_4535" cx="0" cy="0" r="1" gradientUnits="userSpaceOnUse" gradientTransform="translate(70.0002 159) rotate(33.6901) scale(7.2111 7.21111)">
<stop stop-color="#AB6CE8"/>
<stop offset="0.76" stop-color="#AB6CE8" stop-opacity="0"/>
</radialGradient>
<radialGradient id="paint10_radial_135_4535" cx="0" cy="0" r="1" gradientUnits="userSpaceOnUse" gradientTransform="translate(162.5 286.5) rotate(24.7751) scale(7.15891 7.1589)">
<stop stop-color="#AB6CE8"/>
<stop offset="0.76" stop-color="#AB6CE8" stop-opacity="0"/>
</radialGradient>
<radialGradient id="paint11_radial_135_4535" cx="0" cy="0" r="1" gradientUnits="userSpaceOnUse" gradientTransform="translate(240.5 199.5) rotate(24.444) scale(6.04152)">
<stop stop-color="#AB6CE8"/>
<stop offset="0.76" stop-color="#AB6CE8" stop-opacity="0"/>
</radialGradient>
<radialGradient id="paint12_radial_135_4535" cx="0" cy="0" r="1" gradientUnits="userSpaceOnUse" gradientTransform="translate(212.001 257) rotate(3.02689) scale(13.431 13.431)">
<stop stop-color="#AB6CE8"/>
<stop offset="0.76" stop-color="#AB6CE8" stop-opacity="0"/>
</radialGradient>
<linearGradient id="paint13_linear_135_4535" x1="134.19" y1="211.92" x2="190.94" y2="211.92" gradientUnits="userSpaceOnUse">
<stop stop-color="#66B9A0"/>
<stop offset="1" stop-color="#02FE57"/>
</linearGradient>
<linearGradient id="paint14_linear_135_4535" x1="167.4" y1="257.36" x2="157.68" y2="165.93" gradientUnits="userSpaceOnUse">
<stop stop-color="#2AFC61"/>
<stop offset="1" stop-color="#AE69EB"/>
</linearGradient>
<radialGradient id="paint15_radial_135_4535" cx="0" cy="0" r="1" gradientUnits="userSpaceOnUse" gradientTransform="translate(202 157) rotate(19.179) scale(12.1758)">
<stop stop-color="#AB6CE8"/>
<stop offset="0.76" stop-color="#AB6CE8" stop-opacity="0"/>
</radialGradient>
<radialGradient id="paint16_radial_135_4535" cx="0" cy="0" r="1" gradientUnits="userSpaceOnUse" gradientTransform="translate(231.001 320.5) rotate(36.8699) scale(7.5)">
<stop stop-color="#AB6CE8"/>
<stop offset="0.76" stop-color="#AB6CE8" stop-opacity="0"/>
</radialGradient>
<radialGradient id="paint17_radial_135_4535" cx="0" cy="0" r="1" gradientUnits="userSpaceOnUse" gradientTransform="translate(175 73.4999) rotate(48.0128) scale(6.72681 6.72682)">
<stop stop-color="#AB6CE8"/>
<stop offset="0.76" stop-color="#AB6CE8" stop-opacity="0"/>
</radialGradient>
<radialGradient id="paint18_radial_135_4535" cx="0" cy="0" r="1" gradientUnits="userSpaceOnUse" gradientTransform="translate(285.499 257) rotate(18.4349) scale(6.32456 6.32456)">
<stop stop-color="#AB6CE8"/>
<stop offset="0.76" stop-color="#AB6CE8" stop-opacity="0"/>
</radialGradient>
<radialGradient id="paint19_radial_135_4535" cx="0" cy="0" r="1" gradientUnits="userSpaceOnUse" gradientTransform="translate(285.999 126) rotate(-143.842) scale(16.1012)">
<stop stop-color="#AB6CE8"/>
<stop offset="0.76" stop-color="#AB6CE8" stop-opacity="0"/>
</radialGradient>
<clipPath id="clip0_135_4535">
<rect width="385.81" height="385.81" fill="white"/>
</clipPath>
</defs>
</svg>
