<svg viewBox="0 0 216 28" fill="none" xmlns="http://www.w3.org/2000/svg">
<path d="M66.3918 27.9913C65.3783 28.006 64.3725 27.8136 63.4356 27.4259C62.5903 27.0783 61.8674 26.4859 61.3595 25.7244C60.8384 24.9168 60.5739 23.9698 60.6007 23.0083C60.5631 22.0687 60.8293 21.142 61.3595 20.3662C61.8977 19.6233 62.6389 19.0526 63.4936 18.7229C64.474 18.3328 65.5216 18.1407 66.5762 18.1575H71.1079V17.1905C71.1232 16.8206 71.0645 16.4514 70.935 16.1046C70.8056 15.7579 70.6082 15.4408 70.3544 15.1719C69.8274 14.6435 69.095 14.411 67.962 14.411C67.0971 14.3498 66.2414 14.622 65.5697 15.1719C65.0535 15.6947 64.6892 16.3487 64.5159 17.0636L61.1856 15.9275C61.4246 15.0632 61.8534 14.2635 62.4406 13.5869C63.0278 12.9103 63.7584 12.374 64.5791 12.0173C65.6522 11.5593 66.8123 11.3429 67.9779 11.3832C69.9908 11.3832 71.6296 11.9116 72.7625 12.8997C73.8954 13.8879 74.5225 15.4203 74.5225 17.3173V23.4363C74.5225 24.0652 74.8387 24.3822 75.4025 24.3822H76.7251V27.5527H74.2063C73.5318 27.5777 72.8681 27.377 72.3199 26.982C72.0713 26.8028 71.8719 26.5635 71.7402 26.2864C71.6085 26.0092 71.5487 25.7032 71.5663 25.3968V25.3334H71.0394C70.8717 25.7087 70.6613 26.0633 70.4123 26.3902C70.0197 26.8527 69.523 27.2149 68.9633 27.447C68.1703 27.8566 67.2821 28.0446 66.3918 27.9913V27.9913ZM67.0188 25.0269C67.5437 25.0595 68.0698 24.9872 68.5665 24.8139C69.0631 24.6406 69.5204 24.3699 69.9117 24.0176C70.2935 23.6681 70.5931 23.2379 70.789 22.7582C70.985 22.2784 71.0723 21.7611 71.0447 21.2434V20.9264H66.7659C66.0997 20.9188 65.4453 21.1021 64.8794 21.4548C64.6362 21.6179 64.4428 21.8456 64.3209 22.1124C64.199 22.3792 64.1534 22.6748 64.1891 22.966C64.1816 23.2613 64.2463 23.554 64.3777 23.8184C64.509 24.0828 64.703 24.3108 64.9427 24.4826C65.5586 24.8827 66.2865 25.0735 67.0188 25.0269Z" fill="white"/>
<path d="M91.7432 27.5523L91.7432 5.64771H95.3949V13.9879H95.9587C96.1721 13.5936 96.448 13.2367 96.7755 12.931C97.2133 12.5352 97.7283 12.2347 98.2878 12.0486C99.1906 11.7363 100.148 11.6141 101.1 11.6896C102.052 11.765 102.978 12.0365 103.821 12.4872C104.744 13.0136 105.489 13.8049 105.96 14.7594C106.491 15.8376 106.751 17.0292 106.719 18.2311V27.5682H103.067V18.527C103.105 18.0149 103.042 17.5003 102.88 17.0132C102.718 16.5261 102.461 16.0761 102.124 15.6894C101.771 15.362 101.356 15.1095 100.903 14.947C100.45 14.7845 99.9693 14.7153 99.4892 14.7435C98.9251 14.7246 98.3635 14.8276 97.8425 15.0455C97.3215 15.2634 96.8534 15.5911 96.4698 16.0064C95.711 16.8255 95.3369 18.0884 95.3369 19.6631V27.5523H91.7432Z" fill="white"/>
<path d="M117.853 27.9914C116.412 28.0241 114.986 27.6992 113.7 27.0455C112.497 26.4369 111.491 25.4965 110.802 24.3347C110.073 23.0254 109.709 21.5432 109.748 20.044V19.5156C109.715 18.0187 110.079 16.5398 110.802 15.2301C111.489 14.049 112.493 13.0857 113.7 12.4506C114.989 11.8064 116.413 11.482 117.853 11.5048C119.293 11.4753 120.719 11.8001 122.005 12.4506C123.225 13.0655 124.233 14.0338 124.898 15.2301C125.621 16.5398 125.985 18.0187 125.952 19.5156V20.044C125.983 21.5423 125.62 23.0224 124.898 24.3347C124.229 25.5109 123.22 26.456 122.005 27.0455C120.715 27.6849 119.292 28.009 117.853 27.9914V27.9914ZM117.853 24.7733C118.445 24.7922 119.034 24.6905 119.586 24.4743C120.137 24.2581 120.639 23.932 121.062 23.5157C121.937 22.5294 122.388 21.2357 122.316 19.9172V19.6001C122.377 18.2848 121.928 16.9968 121.062 16.0069C120.648 15.5779 120.148 15.2431 119.594 15.0252C119.041 14.8073 118.447 14.7114 117.853 14.744C116.639 14.717 115.463 15.1707 114.58 16.0069C113.703 16.9904 113.25 18.2825 113.321 19.6001V19.9172C113.259 21.2408 113.713 22.5368 114.586 23.5315C115.47 24.3587 116.643 24.8046 117.853 24.7733V24.7733Z" fill="white"/>
<path d="M129.367 27.5525V11.9695H132.887V13.7978H133.457C133.663 13.2174 134.073 12.7326 134.611 12.4345C135.211 12.1212 135.883 11.9701 136.56 11.9959H138.447V15.214H136.497C135.584 15.1528 134.682 15.4461 133.978 16.033C133.642 16.3683 133.383 16.7735 133.22 17.2199C133.057 17.6664 132.994 18.1433 133.035 18.617V27.6L129.367 27.5525Z" fill="white"/>
<path d="M146.201 27.9912C145.188 28.0059 144.182 27.8135 143.245 27.4258C142.401 27.0755 141.679 26.4837 141.169 25.7243C140.65 24.9162 140.387 23.9692 140.415 23.0083C140.379 22.0695 140.643 21.1435 141.169 20.3662C141.71 19.6238 142.453 19.0532 143.308 18.7228C144.289 18.3318 145.336 18.1397 146.391 18.1574H150.944V17.1904C150.959 16.8205 150.9 16.4513 150.771 16.1046C150.642 15.7579 150.444 15.4407 150.19 15.1719C149.663 14.6434 148.931 14.4109 147.798 14.4109C146.933 14.3498 146.077 14.6219 145.406 15.1719C144.889 15.6947 144.525 16.3487 144.352 17.0636L141.016 15.9275C141.263 15.0991 141.67 14.3273 142.212 13.6553C142.823 12.959 143.573 12.4006 144.415 12.0172C145.478 11.5614 146.627 11.3432 147.782 11.3778C149.795 11.3778 151.429 11.9062 152.562 12.8944C153.694 13.8825 154.327 15.4149 154.327 17.312V23.431C154.327 24.0598 154.638 24.3769 155.207 24.3769H156.524V27.5474H154.011C153.336 27.5724 152.672 27.3716 152.124 26.9767C151.875 26.798 151.674 26.559 151.542 26.2819C151.409 26.0047 151.348 25.6984 151.365 25.3914V25.328H150.838C150.671 25.7034 150.46 26.058 150.211 26.3849C149.818 26.8462 149.321 27.2082 148.762 27.4417C147.97 27.8436 147.088 28.033 146.201 27.9912V27.9912ZM146.834 25.0268C147.359 25.0595 147.885 24.9871 148.381 24.8138C148.878 24.6406 149.335 24.3699 149.727 24.0176C150.107 23.6673 150.406 23.237 150.602 22.7575C150.798 22.2779 150.886 21.7609 150.86 21.2434V20.9263H146.581C145.914 20.9179 145.26 21.1013 144.694 21.4547C144.451 21.6179 144.258 21.8455 144.136 22.1124C144.014 22.3792 143.968 22.6747 144.004 22.966C143.995 23.2615 144.059 23.5547 144.191 23.8193C144.322 24.0839 144.517 24.3118 144.757 24.4826C145.379 24.8878 146.115 25.0789 146.855 25.0268H146.834Z" fill="white"/>
<path d="M51.8416 5.64771V14.7435H43.1628L43.1628 5.64771H39.3899L39.3899 27.5523H43.1628V18.2152H51.8416V27.5523H55.683V5.64771H51.8416Z" fill="white"/>
<path d="M83.6283 5.64771H79.9766L79.9766 12.5354H83.6283L83.6283 5.64771Z" fill="white"/>
<path d="M88.0967 12.5981H83.6282V16.0698H88.0967V12.5981Z" fill="white"/>
<path d="M79.9765 16.1973V24.2715C79.9487 25.1753 80.2653 26.0558 80.8618 26.7339C81.181 27.0331 81.5565 27.2653 81.9665 27.4168C82.3764 27.5684 82.8124 27.6362 83.2489 27.6163H87.5909V24.6519H84.4292C83.8654 24.6519 83.5492 24.3349 83.5492 23.7008V16.1973H79.9765Z" fill="white"/>
<path d="M158.78 11.4674V9.89469H160.315V1.57267H158.78V0H164.579C165.265 0 165.864 0.120134 166.376 0.360403C166.888 0.58975 167.285 0.922849 167.568 1.3597C167.863 1.78563 168.01 2.29347 168.01 2.88322V3.04704C168.01 3.57126 167.912 4.00265 167.715 4.34121C167.519 4.67977 167.28 4.94188 166.997 5.12755C166.724 5.31321 166.463 5.44426 166.213 5.52071V5.78282C166.463 5.84835 166.73 5.97941 167.013 6.17599C167.307 6.36165 167.552 6.62376 167.748 6.96232C167.955 7.30088 168.059 7.74319 168.059 8.28926V8.45308C168.059 9.08651 167.912 9.62712 167.617 10.0749C167.323 10.5227 166.915 10.8667 166.392 11.107C165.88 11.3472 165.287 11.4674 164.612 11.4674H158.78ZM162.096 9.86192H164.399C164.987 9.86192 165.45 9.71995 165.788 9.43599C166.125 9.15204 166.294 8.75887 166.294 8.2565V8.10906C166.294 7.60668 166.125 7.21351 165.788 6.92956C165.461 6.6456 164.998 6.50363 164.399 6.50363H162.096V9.86192ZM162.096 4.88182H164.399C164.955 4.88182 165.401 4.7453 165.739 4.47227C166.076 4.18831 166.245 3.80607 166.245 3.32553V3.16171C166.245 2.68118 166.076 2.30439 165.739 2.03136C165.412 1.74741 164.966 1.60543 164.399 1.60543H162.096V4.88182Z" fill="#B399EA"/>
<path d="M173.663 11.6148C173.053 11.6148 172.509 11.4783 172.03 11.2052C171.55 10.9322 171.175 10.5445 170.902 10.0421C170.63 9.53975 170.494 8.93908 170.494 8.24011V3.39106H172.177V8.12544C172.177 8.8244 172.351 9.34316 172.699 9.68172C173.048 10.0094 173.533 10.1732 174.153 10.1732C174.839 10.1732 175.389 9.94383 175.803 9.48514C176.228 9.01552 176.44 8.34386 176.44 7.47016V3.39106H178.123V11.4674H176.473V10.2551H176.212C176.059 10.5827 175.787 10.894 175.395 11.1889C175.003 11.4728 174.426 11.6148 173.663 11.6148Z" fill="#B399EA"/>
<path d="M181.1 11.4674V3.39106H182.783V11.4674H181.1ZM181.95 2.29347C181.623 2.29347 181.346 2.18972 181.117 1.98221C180.899 1.76379 180.79 1.48529 180.79 1.14673C180.79 0.808175 180.899 0.535144 181.117 0.327639C181.346 0.109213 181.623 0 181.95 0C182.288 0 182.565 0.109213 182.783 0.327639C183.001 0.535144 183.11 0.808175 183.11 1.14673C183.11 1.48529 183.001 1.76379 182.783 1.98221C182.565 2.18972 182.288 2.29347 181.95 2.29347Z" fill="#B399EA"/>
<path d="M185.77 11.4674V0H187.453V11.4674H185.77Z" fill="#B399EA"/>
<path d="M193.773 11.6967C193.108 11.6967 192.493 11.5329 191.927 11.2052C191.361 10.8776 190.903 10.408 190.555 9.7964C190.217 9.17388 190.048 8.42578 190.048 7.55207V7.30634C190.048 6.44356 190.217 5.70091 190.555 5.0784C190.892 4.45589 191.344 3.98081 191.91 3.65317C192.477 3.32553 193.098 3.16171 193.773 3.16171C194.296 3.16171 194.731 3.22724 195.08 3.3583C195.439 3.48935 195.733 3.65863 195.962 3.86614C196.191 4.06272 196.365 4.27022 196.485 4.48865H196.746V0H198.429V11.4674H196.779V10.3206H196.517C196.31 10.6701 195.995 10.9868 195.57 11.2708C195.156 11.5547 194.557 11.6967 193.773 11.6967ZM194.247 10.2223C194.976 10.2223 195.575 9.98752 196.044 9.5179C196.523 9.04829 196.762 8.37663 196.762 7.50293V7.35549C196.762 6.49271 196.528 5.82651 196.06 5.35689C195.592 4.88728 194.987 4.65247 194.247 4.65247C193.528 4.65247 192.929 4.88728 192.45 5.35689C191.981 5.82651 191.747 6.49271 191.747 7.35549V7.50293C191.747 8.37663 191.981 9.04829 192.45 9.5179C192.929 9.98752 193.528 10.2223 194.247 10.2223Z" fill="#B399EA"/>
<path d="M205.088 11.6967C204.271 11.6967 203.558 11.5274 202.948 11.1889C202.338 10.8394 201.859 10.3534 201.51 9.73087C201.172 9.09743 201.004 8.36571 201.004 7.53569V7.33911C201.004 6.49817 201.172 5.76644 201.51 5.14393C201.848 4.51049 202.316 4.0245 202.915 3.68594C203.525 3.33645 204.227 3.16171 205.022 3.16171C205.796 3.16171 206.471 3.33645 207.048 3.68594C207.636 4.0245 208.094 4.49957 208.42 5.11116C208.747 5.72275 208.91 6.4381 208.91 7.2572V7.89609H202.719C202.741 8.60598 202.975 9.17388 203.421 9.59981C203.879 10.0148 204.445 10.2223 205.12 10.2223C205.752 10.2223 206.226 10.0803 206.542 9.7964C206.868 9.51244 207.119 9.1848 207.293 8.81348L208.682 9.53429C208.529 9.84008 208.306 10.1623 208.012 10.5008C207.729 10.8394 207.353 11.1233 206.885 11.3527C206.416 11.582 205.817 11.6967 205.088 11.6967ZM202.735 6.60192H207.195C207.152 5.99033 206.934 5.51525 206.542 5.17669C206.15 4.82721 205.638 4.65247 205.006 4.65247C204.374 4.65247 203.857 4.82721 203.454 5.17669C203.062 5.51525 202.822 5.99033 202.735 6.60192Z" fill="#B399EA"/>
<path d="M211.426 11.4674V3.39106H213.076V4.34121H213.337C213.468 4.00265 213.675 3.75692 213.958 3.60403C214.252 3.44021 214.612 3.3583 215.036 3.3583H216V4.88182H214.971C214.426 4.88182 213.98 5.03471 213.631 5.34051C213.283 5.63539 213.109 6.09408 213.109 6.71659V11.4674H211.426Z" fill="#B399EA"/>
<path fill-rule="evenodd" clip-rule="evenodd" d="M10.6007 6.23659L11.7458 5.04336L29.2625 15.5479L27.957 16.6481L10.6007 6.23659ZM7.10338 9.58135L6.45211 10.2354L23.63 20.5387L24.9395 19.4407L7.6216 9.05552L7.10338 9.58135ZM1.71822 10.7137L10.6388 16.0653C13.1923 17.586 15.7735 19.1218 17.5949 20.2056L17.5979 20.2074C18.8158 20.9321 19.6935 21.4543 19.9951 21.6342L20.0886 21.6853C21.5968 22.5105 22.7267 21.4518 22.7267 21.4518L22.7334 21.4396L2.92023 9.55161L1.71822 10.7137ZM7.58926 5.84789L6.4704 7.06077L25.7968 18.6507L27.1001 17.5546L7.58926 5.84789ZM8.56363 17.8923L9.59414 16.8903L13.6677 19.2831L12.6331 20.2829L8.56363 17.8923ZM11.7829 21.1083L10.6881 22.1703L6.61862 19.7798L7.71344 18.7177L11.7829 21.1083ZM9.83812 22.9959L8.7433 24.0579L4.6738 21.6673L5.76862 20.6053L9.83812 22.9959ZM7.89287 24.8837L6.79805 25.9457L2.72855 23.5551L3.82337 22.4931L7.89287 24.8837ZM2.66348 26.5452C4.30134 27.5101 5.58162 26.9992 5.94014 26.7669L1.8747 24.3785L0.779875 25.4406L2.66348 26.5452Z" fill="url(#paint0_linear_295_3162)"/>
<defs>
<linearGradient id="paint0_linear_295_3162" x1="26.2859" y1="18.9352" x2="-0.794503" y2="4.28376" gradientUnits="userSpaceOnUse">
<stop offset="0.152539" stop-color="#AF64EE"/>
<stop offset="0.823591" stop-color="#02FE57"/>
</linearGradient>
</defs>
</svg>
